<svg width="16" height="16" viewBox="0 0 16 16" fill="none" xmlns="http://www.w3.org/2000/svg">
<path fill-rule="evenodd" clip-rule="evenodd" d="M8.00033 2.00008C4.68662 2.00008 2.00033 4.68637 2.00033 8.00008C2.00033 11.3138 4.68662 14.0001 8.00033 14.0001C11.314 14.0001 14.0003 11.3138 14.0003 8.00008C14.0003 4.68637 11.314 2.00008 8.00033 2.00008ZM0.666992 8.00008C0.666992 3.94999 3.95024 0.666748 8.00033 0.666748C12.0504 0.666748 15.3337 3.94999 15.3337 8.00008C15.3337 12.0502 12.0504 15.3334 8.00033 15.3334C3.95024 15.3334 0.666992 12.0502 0.666992 8.00008ZM8.00033 4.66675C8.36852 4.66675 8.66699 4.96522 8.66699 5.33341V8.00008C8.66699 8.36827 8.36852 8.66675 8.00033 8.66675C7.63214 8.66675 7.33366 8.36827 7.33366 8.00008V5.33341C7.33366 4.96522 7.63214 4.66675 8.00033 4.66675ZM7.33366 10.6667C7.33366 10.2986 7.63214 10.0001 8.00033 10.0001H8.00699C8.37518 10.0001 8.67366 10.2986 8.67366 10.6667C8.67366 11.0349 8.37518 11.3334 8.00699 11.3334H8.00033C7.63214 11.3334 7.33366 11.0349 7.33366 10.6667Z" fill="#EC3615"/>
</svg>
