<svg width="16" height="15" viewBox="0 0 16 15" fill="none" xmlns="http://www.w3.org/2000/svg">
<path d="M0.8 0H15.2C15.4122 0 15.6157 0.0842854 15.7657 0.234315C15.9157 0.384344 16 0.587827 16 0.8V13.6C16 13.8122 15.9157 14.0157 15.7657 14.1657C15.6157 14.3157 15.4122 14.4 15.2 14.4H0.8C0.587827 14.4 0.384344 14.3157 0.234315 14.1657C0.0842854 14.0157 0 13.8122 0 13.6V0.8C0 0.587827 0.0842854 0.384344 0.234315 0.234315C0.384344 0.0842854 0.587827 0 0.8 0V0ZM14.4 3.3904L8.0576 9.0704L1.6 3.3728V12.8H14.4V3.3904ZM2.0088 1.6L8.0488 6.9296L14.0016 1.6H2.0088Z" fill="black"/>
</svg>
