<svg width="16" height="20" viewBox="0 0 16 20" fill="none" xmlns="http://www.w3.org/2000/svg">
<path fill-rule="evenodd" clip-rule="evenodd" d="M5.30159 0.916672H10.6978C11.3711 0.916663 11.9218 0.916656 12.3694 0.953224C12.8327 0.991073 13.2511 1.07181 13.6418 1.2709C14.2533 1.58249 14.7505 2.07968 15.0621 2.6912C15.2612 3.08194 15.3419 3.50034 15.3798 3.9636C15.4164 4.41116 15.4164 4.96187 15.4163 5.63524V14.3648C15.4164 15.0381 15.4164 15.5888 15.3798 16.0364C15.3419 16.4997 15.2612 16.9181 15.0621 17.3088C14.7505 17.9203 14.2533 18.4175 13.6418 18.7291C13.2511 18.9282 12.8327 19.0089 12.3694 19.0468C11.9219 19.0834 11.3711 19.0833 10.6978 19.0833H5.30157C4.6282 19.0833 4.0775 19.0834 3.62994 19.0468C3.16668 19.0089 2.74828 18.9282 2.35754 18.7291C1.74601 18.4175 1.24883 17.9203 0.937237 17.3088C0.738145 16.9181 0.65741 16.4997 0.61956 16.0364C0.582992 15.5888 0.582999 15.0381 0.583008 14.3648V5.63525C0.582999 4.96188 0.582992 4.41117 0.61956 3.9636C0.65741 3.50034 0.738145 3.08194 0.937237 2.6912C1.24883 2.07968 1.74601 1.58249 2.35754 1.2709C2.74828 1.07181 3.16668 0.991073 3.62994 0.953224C4.0775 0.916656 4.62821 0.916663 5.30159 0.916672ZM3.75209 2.44824C3.38159 2.47851 3.18256 2.53402 3.03852 2.60741C2.70924 2.77519 2.44153 3.04291 2.27375 3.37219C2.20036 3.51623 2.14485 3.71525 2.11458 4.08575C2.08359 4.46501 2.08301 4.95423 2.08301 5.66667V14.3333C2.08301 15.0458 2.08359 15.535 2.11458 15.9143C2.14485 16.2848 2.20036 16.4838 2.27375 16.6278C2.44153 16.9571 2.70924 17.2248 3.03852 17.3926C3.18256 17.466 3.38159 17.5215 3.75209 17.5518C4.13134 17.5828 4.62057 17.5833 5.33301 17.5833H10.6663C11.3788 17.5833 11.868 17.5828 12.2473 17.5518C12.6178 17.5215 12.8168 17.466 12.9608 17.3926C13.2901 17.2248 13.5578 16.9571 13.7256 16.6278C13.799 16.4838 13.8545 16.2848 13.8848 15.9143C13.9158 15.535 13.9163 15.0458 13.9163 14.3333V5.66667C13.9163 4.95423 13.9158 4.46501 13.8848 4.08575C13.8545 3.71525 13.799 3.51623 13.7256 3.37219C13.5578 3.04291 13.2901 2.77519 12.9608 2.60741C12.8168 2.53402 12.6178 2.47851 12.2473 2.44824C11.868 2.41726 11.3788 2.41667 10.6663 2.41667H5.33301C4.62057 2.41667 4.13134 2.41726 3.75209 2.44824ZM9.24967 6.58334C8.97353 6.58334 8.74967 6.8072 8.74967 7.08334V11.6667C8.74967 12.0809 8.41389 12.4167 7.99967 12.4167C7.58546 12.4167 7.24967 12.0809 7.24967 11.6667V7.08334C7.24967 5.97877 8.14511 5.08334 9.24967 5.08334C10.3542 5.08334 11.2497 5.97877 11.2497 7.08334V11.6667C11.2497 13.4616 9.7946 14.9167 7.99967 14.9167C6.20475 14.9167 4.74967 13.4616 4.74967 11.6667V8.33334C4.74967 7.91913 5.08546 7.58334 5.49967 7.58334C5.91389 7.58334 6.24967 7.91913 6.24967 8.33334V11.6667C6.24967 12.6332 7.03318 13.4167 7.99967 13.4167C8.96617 13.4167 9.74967 12.6332 9.74967 11.6667V7.08334C9.74967 6.8072 9.52582 6.58334 9.24967 6.58334Z" fill="#999999"/>
</svg>
