<svg width="16" height="20" viewBox="0 0 16 20" fill="none" xmlns="http://www.w3.org/2000/svg">
<path d="M7.99967 11.6667V7.08332C7.99967 6.39297 8.55932 5.83332 9.24967 5.83332C9.94003 5.83332 10.4997 6.39297 10.4997 7.08332V11.6667C10.4997 13.0474 9.38039 14.1667 7.99967 14.1667C6.61896 14.1667 5.49967 13.0474 5.49967 11.6667V8.33332M5.33301 18.3333H10.6663C12.0665 18.3333 12.7665 18.3333 13.3013 18.0608C13.7717 17.8212 14.1542 17.4387 14.3939 16.9683C14.6663 16.4335 14.6663 15.7335 14.6663 14.3333V5.66666C14.6663 4.26653 14.6663 3.56646 14.3939 3.03168C14.1542 2.56128 13.7717 2.17882 13.3013 1.93914C12.7665 1.66666 12.0665 1.66666 10.6663 1.66666H5.33301C3.93288 1.66666 3.23281 1.66666 2.69803 1.93914C2.22763 2.17882 1.84517 2.56128 1.60549 3.03168C1.33301 3.56646 1.33301 4.26653 1.33301 5.66666V14.3333C1.33301 15.7335 1.33301 16.4335 1.60549 16.9683C1.84517 17.4387 2.22763 17.8212 2.69803 18.0608C3.23281 18.3333 3.93288 18.3333 5.33301 18.3333Z" stroke="#999999" stroke-width="1.5" stroke-linecap="round" stroke-linejoin="round"/>
</svg>
