<svg width="12" height="12" viewBox="0 0 12 12" fill="none" xmlns="http://www.w3.org/2000/svg">
<path d="M9.26204 10.1277C8.28665 10.7587 7.15504 11.0929 6 11.091C3.00971 11.091 0.52186 8.8962 0 6C0.238486 4.68241 0.888231 3.47878 1.8523 2.56868L0.117016 0.800415L0.901747 0L11.8819 11.2002L11.0971 12L9.26148 10.1277H9.26204ZM2.63647 3.36966C1.8828 4.06859 1.35779 4.98677 1.13245 6C1.30564 6.77296 1.65335 7.494 2.14789 8.10574C2.64243 8.71747 3.27015 9.20301 3.98108 9.5237C4.69201 9.84438 5.46652 9.99136 6.24296 9.95293C7.01939 9.91451 7.77631 9.69173 8.45346 9.30235L7.32877 8.15518C6.85 8.4628 6.28295 8.59533 5.72062 8.53103C5.1583 8.46673 4.63409 8.20943 4.23398 7.80132C3.83387 7.39321 3.5816 6.85852 3.51857 6.28496C3.45553 5.7114 3.58546 5.13301 3.88705 4.64467L2.63647 3.36966ZM6.50689 7.31687L4.70894 5.48298C4.61026 5.73919 4.58703 6.01921 4.64211 6.28868C4.69719 6.55816 4.82818 6.80538 5.01901 7.00003C5.20985 7.19467 5.45222 7.32828 5.71642 7.38446C5.98062 7.44064 6.25514 7.41695 6.50633 7.3163L6.50689 7.31687ZM10.8842 8.59753L10.0906 7.78863C10.4613 7.24972 10.7252 6.64213 10.8675 6C10.7168 5.3267 10.4335 4.6917 10.0347 4.13359C9.63584 3.57547 9.12993 3.10591 8.54767 2.75343C7.96541 2.40095 7.31895 2.17292 6.6476 2.08321C5.97625 1.99349 5.29402 2.04396 4.64239 2.23154L3.76726 1.33893C4.45882 1.06175 5.2125 0.909022 6 0.909022C8.9903 0.909022 11.4781 3.1038 12 6C11.8301 6.94223 11.4481 7.83138 10.8842 8.59753V8.59753ZM5.84638 3.45904C6.19938 3.43679 6.55298 3.49132 6.88375 3.61902C7.21452 3.74672 7.5149 3.94467 7.76498 4.19975C8.01506 4.45483 8.20913 4.76121 8.33433 5.09859C8.45953 5.43597 8.51299 5.79664 8.49117 6.15669L5.84583 3.45904H5.84638Z" fill="#1C2835"/>
</svg>
