<svg width="18" height="18" viewBox="0 0 18 18" fill="none" xmlns="http://www.w3.org/2000/svg">
<path fill-rule="evenodd" clip-rule="evenodd" d="M7.33366 2.33332C4.57224 2.33332 2.33366 4.5719 2.33366 7.33332C2.33366 10.0947 4.57224 12.3333 7.33366 12.3333C10.0951 12.3333 12.3337 10.0947 12.3337 7.33332C12.3337 4.5719 10.0951 2.33332 7.33366 2.33332ZM0.666992 7.33332C0.666992 3.65142 3.65176 0.666656 7.33366 0.666656C11.0156 0.666656 14.0003 3.65142 14.0003 7.33332C14.0003 8.8739 13.4778 10.2924 12.6002 11.4213L17.0896 15.9107C17.415 16.2362 17.415 16.7638 17.0896 17.0893C16.7641 17.4147 16.2365 17.4147 15.9111 17.0892L11.4217 12.5998C10.2928 13.4774 8.87427 14 7.33366 14C3.65176 14 0.666992 11.0152 0.666992 7.33332Z" fill="#B3B3B3"/>
</svg>
