<svg width="24" height="24" viewBox="0 0 24 24" fill="none" xmlns="http://www.w3.org/2000/svg">
    <path fill-rule="evenodd" clip-rule="evenodd"
        d="M15.1875 9.5625C13.8413 9.5625 12.75 10.6538 12.75 12C12.75 13.3462 13.8413 14.4375 15.1875 14.4375C16.5337 14.4375 17.625 13.3462 17.625 12C17.625 10.6538 16.5337 9.5625 15.1875 9.5625ZM11.25 12C11.25 9.82538 13.0129 8.0625 15.1875 8.0625C17.3621 8.0625 19.125 9.82538 19.125 12C19.125 14.1746 17.3621 15.9375 15.1875 15.9375C13.0129 15.9375 11.25 14.1746 11.25 12Z"
        fill="black" />
    <path fill-rule="evenodd" clip-rule="evenodd"
        d="M6.02827 2.84077C6.76669 2.10234 7.76821 1.6875 8.8125 1.6875H12C12.4142 1.6875 12.75 2.02329 12.75 2.4375V8.8125C12.75 9.22671 12.4142 9.5625 12 9.5625H8.8125C7.76821 9.5625 6.76669 9.14766 6.02827 8.40923C5.28984 7.67081 4.875 6.66929 4.875 5.625C4.875 4.58071 5.28984 3.57919 6.02827 2.84077ZM8.8125 3.1875C8.16603 3.1875 7.54605 3.44431 7.08893 3.90143C6.63181 4.35855 6.375 4.97853 6.375 5.625C6.375 6.27147 6.63181 6.89145 7.08893 7.34857C7.54605 7.80569 8.16603 8.0625 8.8125 8.0625H11.25V3.1875H8.8125Z"
        fill="black" />
    <path fill-rule="evenodd" clip-rule="evenodd"
        d="M6.02827 9.21577C6.76669 8.47734 7.76821 8.0625 8.8125 8.0625H12C12.4142 8.0625 12.75 8.39829 12.75 8.8125V15.1875C12.75 15.6017 12.4142 15.9375 12 15.9375H8.8125C7.76821 15.9375 6.76669 15.5227 6.02827 14.7842C5.28984 14.0458 4.875 13.0443 4.875 12C4.875 10.9557 5.28984 9.95419 6.02827 9.21577ZM8.8125 9.5625C8.16603 9.5625 7.54605 9.81931 7.08893 10.2764C6.63181 10.7335 6.375 11.3535 6.375 12C6.375 12.6465 6.63181 13.2665 7.08893 13.7236C7.54605 14.1807 8.16604 14.4375 8.8125 14.4375H11.25V9.5625H8.8125Z"
        fill="black" />
    <path fill-rule="evenodd" clip-rule="evenodd"
        d="M11.25 2.4375C11.25 2.02329 11.5858 1.6875 12 1.6875H15.1875C16.2318 1.6875 17.2333 2.10234 17.9717 2.84077C18.7102 3.57919 19.125 4.58071 19.125 5.625C19.125 6.66929 18.7102 7.67081 17.9717 8.40923C17.2333 9.14766 16.2318 9.5625 15.1875 9.5625H12C11.5858 9.5625 11.25 9.22671 11.25 8.8125V2.4375ZM12.75 3.1875V8.0625H15.1875C15.834 8.0625 16.454 7.80569 16.9111 7.34857C17.3682 6.89145 17.625 6.27146 17.625 5.625C17.625 4.97854 17.3682 4.35855 16.9111 3.90143C16.454 3.44431 15.834 3.1875 15.1875 3.1875H12.75Z"
        fill="black" />
    <path fill-rule="evenodd" clip-rule="evenodd"
        d="M8.8125 15.9375C8.33041 15.9375 7.85914 16.0805 7.4583 16.3483C7.05746 16.6161 6.74503 16.9968 6.56055 17.4422C6.37606 17.8876 6.32779 18.3777 6.42184 18.8505C6.51589 19.3234 6.74804 19.7577 7.08893 20.0986C7.42982 20.4395 7.86414 20.6716 8.33697 20.7657C8.8098 20.8597 9.2999 20.8114 9.74529 20.627C10.1907 20.4425 10.5714 20.13 10.8392 19.7292C11.107 19.3284 11.25 18.8571 11.25 18.375V15.9375H8.8125ZM6.62494 15.1011C7.27246 14.6684 8.03374 14.4375 8.8125 14.4375H12C12.4142 14.4375 12.75 14.7733 12.75 15.1875V18.375C12.75 19.1538 12.5191 19.915 12.0864 20.5626C11.6538 21.2101 11.0388 21.7148 10.3193 22.0128C9.59983 22.3108 8.80813 22.3888 8.04433 22.2368C7.28053 22.0849 6.57894 21.7099 6.02827 21.1592C5.4776 20.6086 5.10259 19.907 4.95066 19.1432C4.79873 18.3794 4.87671 17.5877 5.17473 16.8682C5.47275 16.1487 5.97742 15.5337 6.62494 15.1011Z"
        fill="black" />
</svg>