<svg width="12" height="16" viewBox="0 0 12 16" fill="none" xmlns="http://www.w3.org/2000/svg">
    <path fill-rule="evenodd" clip-rule="evenodd"
        d="M3.07692 0C1.37758 0 0 1.37758 0 3.07692C0 4.08345 0.48329 4.97709 1.23047 5.53846C0.48329 6.09983 0 6.99348 0 8C0 9.00652 0.48329 9.90014 1.23047 10.4615C0.48329 11.0229 0 11.9166 0 12.9231C0 14.6224 1.37758 16 3.07692 16C4.77629 16 6.15385 14.6224 6.15385 12.9231V11.0769V10.4618C6.66806 10.848 7.30732 11.0769 8 11.0769C9.69936 11.0769 11.0769 9.69936 11.0769 8C11.0769 6.99348 10.5936 6.09983 9.84648 5.53846C10.5936 4.97709 11.0769 4.08345 11.0769 3.07692C11.0769 1.37758 9.69936 0 8 0H6.15385H5.53846H4.92308H3.07692ZM8 4.92308C9.01957 4.92308 9.84615 4.09652 9.84615 3.07692C9.84615 2.05732 9.01957 1.23077 8 1.23077H6.15385V4.92308H8ZM4.92308 8V6.15385H3.07692C2.05732 6.15385 1.23077 6.98043 1.23077 8C1.23077 9.01957 2.05732 9.84615 3.07692 9.84615H4.92308V8ZM6.15385 8C6.15385 6.98043 6.98043 6.15385 8 6.15385C9.01957 6.15385 9.84615 6.98043 9.84615 8C9.84615 9.01957 9.01957 9.84615 8 9.84615C6.98043 9.84615 6.15385 9.01957 6.15385 8ZM3.07692 1.23077H4.92308V4.92308H3.07692C2.05732 4.92308 1.23077 4.09652 1.23077 3.07692C1.23077 2.05732 2.05732 1.23077 3.07692 1.23077ZM3.07692 11.0769H4.92308V12.9231C4.92308 13.9426 4.09649 14.7692 3.07692 14.7692C2.05732 14.7692 1.23077 13.9426 1.23077 12.9231C1.23077 11.9035 2.05732 11.0769 3.07692 11.0769Z"
        fill="white" />
</svg>