<svg width="15" height="16" viewBox="0 0 15 16" fill="none" xmlns="http://www.w3.org/2000/svg">
    <path
        d="M14.0486 3.09815C14.3989 1.84299 13.8735 0.471077 13.8443 0.383508C13.7567 0.17918 13.5524 0.00404139 13.3189 0.00404139C13.2605 0.00404139 11.9177 -0.112717 10.575 0.908922C9.52419 0.704595 8.32741 0.646215 8.26903 0.646215C8.23984 0.646215 8.23984 0.646215 8.21065 0.646215C8.15228 0.646215 6.9555 0.704595 5.90467 0.908922C4.56194 -0.112717 3.21922 0.00404139 3.16084 0.00404139C2.92732 0.0332311 2.72299 0.17918 2.63542 0.383508C2.60623 0.441887 2.05163 1.84299 2.43109 3.09815C1.75973 4.03222 1.23432 5.25819 1.70135 7.44742C2.1392 9.43232 3.77382 10.5415 5.46682 10.921C5.32087 11.3296 5.26249 11.8259 5.20411 12.3513C4.50356 12.3805 4.06572 11.9718 3.45273 11.3296C2.92732 10.775 2.34352 10.1329 1.38026 9.92854C1.05918 9.84097 0.73809 10.0453 0.650521 10.3956C0.592142 10.7459 0.79647 11.0669 1.14675 11.1253C1.70135 11.2421 2.08082 11.6507 2.54785 12.147C3.16084 12.7891 3.86139 13.5773 5.11655 13.5773H5.14574C5.14574 14.2486 5.20412 14.8908 5.23331 15.4162C5.26249 15.7665 5.55439 16 5.90467 15.9708C6.25494 15.9416 6.48846 15.6497 6.45927 15.2994C6.28413 13.3145 6.43008 11.2129 6.75117 10.921C6.98469 10.775 7.13064 10.5123 7.04307 10.2204C6.98469 9.95773 6.75117 9.7534 6.45927 9.7534C6.19657 9.7534 3.45273 9.60746 2.92732 7.18471C2.48947 5.19981 3.04408 4.32412 3.62787 3.62357C3.77382 3.44843 3.80301 3.18572 3.71544 2.9522C3.48192 2.45598 3.56949 1.75542 3.68625 1.28839C4.09491 1.34677 4.70789 1.52191 5.35006 2.07651C5.49601 2.22246 5.70034 2.25165 5.90467 2.22246C6.80955 1.98894 8.03552 1.93056 8.23984 1.93056C8.41498 1.93056 9.67014 1.98894 10.575 2.22246C10.7793 2.28084 10.9837 2.22246 11.1296 2.07651C11.7718 1.52191 12.414 1.34677 12.7934 1.28839C12.9102 1.72623 12.9978 2.42679 12.7642 2.9522C12.6767 3.15653 12.7059 3.41924 12.8518 3.62357C13.4356 4.32412 13.961 5.19981 13.5524 7.18471C13.027 9.60746 10.2831 9.7534 9.96204 9.78259C9.67014 9.78259 9.43662 9.98692 9.37824 10.2496C9.31986 10.5123 9.43662 10.8042 9.67014 10.9502C10.0204 11.2421 10.1664 13.3145 9.99123 15.3286C9.96204 15.6789 10.2247 15.9708 10.5458 16C10.575 16 10.575 16 10.6042 16C10.9253 16 11.188 15.7665 11.2172 15.4454C11.334 14.1611 11.4215 12.1761 11.0129 10.921C12.7059 10.5707 14.3405 9.43232 14.7783 7.44742C15.2454 5.25819 14.7491 4.03222 14.0486 3.09815Z"
        fill="white" />
</svg>