<?xml version="1.0" encoding="utf-8"?>
<!-- Generator: Adobe Illustrator 27.1.1, SVG Export Plug-In . SVG Version: 6.00 Build 0)  -->
<svg version="1.1" id="Layer_1" xmlns="http://www.w3.org/2000/svg" xmlns:xlink="http://www.w3.org/1999/xlink" x="0px" y="0px"
	 viewBox="0 0 17 16" style="enable-background:new 0 0 17 16;" xml:space="preserve">
<style type="text/css">
	.st0{fill:#FFFFFF;}
</style>
<g>
	<path class="st0" d="M11,14.8c-0.3,0-0.6-0.3-0.6-0.6v-2.3c0-0.2,0-0.4-0.1-0.6c-0.1-0.2-0.2-0.4-0.3-0.5c-0.2-0.2-0.2-0.4-0.1-0.6
		c0.1-0.2,0.3-0.4,0.5-0.4c1.7-0.2,3.3-0.8,3.3-3.6c0-0.7-0.3-1.3-0.7-1.8c-0.2-0.2-0.2-0.4-0.1-0.6c0.2-0.5,0.2-1,0.1-1.4
		c-0.3,0.1-0.8,0.2-1.6,0.8c-0.1,0.1-0.3,0.1-0.5,0.1C9.6,2.9,8.3,2.9,7,3.2c-0.2,0-0.3,0-0.5-0.1C5.8,2.6,5.3,2.5,5,2.4
		c-0.1,0.5-0.1,1,0.1,1.4c0.1,0.2,0,0.5-0.1,0.6C4.5,4.9,4.2,5.6,4.2,6.3c0,2.8,1.6,3.4,3.3,3.6c0.2,0,0.4,0.2,0.5,0.4
		c0.1,0.2,0,0.4-0.1,0.6c-0.1,0.1-0.2,0.3-0.3,0.5c-0.1,0.2-0.1,0.4-0.1,0.6v0.5c0,0,0,0.1,0,0.1l0,1.7c0,0.3-0.3,0.6-0.6,0.6
		s-0.6-0.3-0.6-0.6v-1c-1.8,0.3-2.5-0.7-3.1-1.3c-0.2-0.3-0.4-0.5-0.6-0.6c-0.3-0.1-0.5-0.4-0.4-0.7c0.1-0.3,0.4-0.5,0.7-0.4
		c0.6,0.1,1,0.6,1.3,1C4.6,11.7,5,12.2,6.3,12v-0.1c0-0.3,0-0.7,0.2-1c0,0,0,0,0-0.1C4.8,10.5,3,9.4,3,6.3c0-0.9,0.3-1.7,0.8-2.4
		C3.6,3.1,3.7,2.3,4,1.6c0.1-0.2,0.2-0.3,0.4-0.3C4.6,1.2,5.4,1,7,2c1.3-0.3,2.6-0.3,3.9,0c1.6-1,2.4-0.9,2.6-0.8
		c0.2,0.1,0.3,0.2,0.4,0.3c0.3,0.7,0.4,1.6,0.2,2.3c0.5,0.7,0.8,1.5,0.8,2.4c0,3.4-2,4.3-3.4,4.6c0,0,0,0,0,0.1
		c0.1,0.3,0.2,0.7,0.1,1.1l0,2.2C11.6,14.6,11.3,14.8,11,14.8z"/>
</g>
</svg>
