<svg width="167" height="56" viewBox="0 0 167 56" fill="none" xmlns="http://www.w3.org/2000/svg">
<path d="M50.1922 24.3118C49.1454 14.8137 40.6368 11.9476 31.0963 13.3262C27.4286 13.8559 23.887 15.2201 20.9618 17.1211L18.6824 16.7583C18.3558 16.7075 18.0216 16.7656 17.7321 16.918L14.9405 18.4345C14.3985 18.732 14.1015 19.327 14.2054 19.922L14.8142 23.5137C14.2574 24.5803 13.8713 25.6832 13.6857 26.8152L10.2333 27.9906C9.70615 28.172 9.25325 28.5058 8.934 28.9484L7.27832 31.2268L13.9456 30.9148C14.1238 31.5026 14.3613 32.0685 14.6583 32.6127L13.9084 39.0923L18.2221 38.8747C18.868 38.8456 19.4843 38.5844 19.9595 38.1491L20.2787 37.8588C21.0583 38.2797 21.8898 38.6497 22.7511 38.9835L23.2634 41.407C23.3525 41.8206 23.5901 42.1834 23.939 42.4374L24.2211 42.6405C24.5998 42.9163 25.0824 43.0396 25.5798 42.9888L34.7492 42.1326C35.6698 42.0455 36.4865 41.3925 36.7389 40.5363L36.828 40.2388C44.9505 38.5699 51.0832 32.337 50.1922 24.3118ZM26.9311 39.1286L26.8866 39.5204C26.8643 39.6946 26.7381 39.8397 26.5896 39.8542L24.7037 40.0574C24.5107 40.0792 24.3548 39.8978 24.3771 39.6728L24.4142 39.281C24.429 39.0996 24.5553 38.9545 24.7112 38.94L26.6044 38.7368C26.8049 38.715 26.9608 38.9037 26.9311 39.1286ZM29.9752 38.8529L29.9306 39.2447C29.9084 39.4189 29.7821 39.564 29.6336 39.5785L27.7478 39.7817C27.5548 39.8034 27.3989 39.622 27.4211 39.3971L27.4583 39.0053C27.4731 38.8239 27.5993 38.6787 27.7552 38.6642L29.6485 38.4611C29.8415 38.432 29.9974 38.6207 29.9752 38.8529ZM33.0118 38.6062L32.9673 38.998C32.945 39.1722 32.8188 39.3173 32.6703 39.3318L30.7845 39.535C30.5914 39.5567 30.4355 39.3753 30.4578 39.1504L30.4949 38.7586C30.5097 38.5772 30.636 38.432 30.7919 38.4175L32.6851 38.2144C32.8782 38.1926 33.0341 38.3813 33.0118 38.6062ZM36.2935 39.2012L36.2341 39.4769C36.197 39.6728 36.0113 39.7817 35.8554 39.7091L34.7343 39.1649C34.6972 39.1504 34.6601 39.1431 34.6229 39.1431L33.7691 39.1939C33.5984 39.2012 33.4721 39.0343 33.5018 38.8384L33.5687 38.432C33.5909 38.2797 33.7097 38.1708 33.8359 38.1636L34.7714 38.12C34.816 38.12 34.8605 38.1273 34.8977 38.1491L36.1598 38.8674C36.2712 38.9255 36.3232 39.0633 36.2935 39.2012ZM31.7571 33.4036C26.2406 33.9551 15.0815 34.0059 14.6435 28.9629C14.2054 23.9273 22.2091 16.8599 30.1088 14.9734C35.6772 13.6455 41.2085 14.7774 44.1858 17.7452C41.1714 16.2867 37.0137 15.8804 32.8188 16.7801C26.6267 18.108 20.3381 22.4253 18.2221 26.4306C20.9989 23.0058 26.3446 19.7043 31.616 18.5723C36.0039 17.6291 40.3547 18.1225 43.3913 19.7478C41.6391 19.327 39.7162 19.1165 37.7338 19.1601C31.8239 19.2762 25.3794 21.736 22.8253 24.5803C25.8991 22.2947 31.3264 20.4952 36.3603 20.3936C40.2062 20.3138 43.8442 21.1845 46.3983 22.6792C46.3983 22.6865 46.3983 22.701 46.3983 22.7083C46.7175 29.5942 38.9218 32.6925 31.7571 33.4036Z" fill="#EC3615"/>
<path d="M63.9082 33.5V31.2891L69.252 24.5859V24.4609H64.1035V22.2969H72.502V24.4922L67.127 31.1953V31.3203H72.5332V33.5H63.9082ZM73.3457 29.3203C73.3457 27.9974 73.7467 26.9219 74.5488 26.0938C75.3509 25.2604 76.3952 24.8438 77.6816 24.8438C78.3587 24.8438 78.9681 24.9635 79.5098 25.2031C80.0566 25.4375 80.502 25.7578 80.8457 26.1641C81.1895 26.5703 81.4525 27.0365 81.6348 27.5625C81.8223 28.0885 81.916 28.6484 81.916 29.2422V29.9609H75.6973C75.7389 30.5026 75.9421 30.9453 76.3066 31.2891C76.6764 31.6328 77.1504 31.8047 77.7285 31.8047C78.1921 31.8047 78.5853 31.7083 78.9082 31.5156C79.2363 31.3229 79.4655 31.0833 79.5957 30.7969H81.8379C81.6452 31.6927 81.179 32.4036 80.4395 32.9297C79.6999 33.4505 78.765 33.7109 77.6348 33.7109C76.8275 33.7109 76.0957 33.5234 75.4395 33.1484C74.7884 32.7734 74.2754 32.25 73.9004 31.5781C73.5306 30.9062 73.3457 30.1536 73.3457 29.3203ZM75.7441 28.3125H79.6191C79.5723 27.8542 79.3717 27.4766 79.0176 27.1797C78.6686 26.8828 78.2233 26.7344 77.6816 26.7344C77.1712 26.7344 76.7337 26.8906 76.3691 27.2031C76.0098 27.5104 75.8014 27.8802 75.7441 28.3125ZM83.5566 37.1797V25.0547H86.0098V25.9922H86.1348C86.2077 25.8776 86.3014 25.763 86.416 25.6484C86.5306 25.5339 86.679 25.4115 86.8613 25.2812C87.0488 25.151 87.2832 25.0469 87.5645 24.9688C87.8509 24.8854 88.1582 24.8438 88.4863 24.8438C89.6426 24.8438 90.5801 25.2448 91.2988 26.0469C92.0176 26.8438 92.377 27.9036 92.377 29.2266C92.377 30.5547 92.0228 31.6354 91.3145 32.4688C90.6061 33.2969 89.6842 33.7109 88.5488 33.7109C88.1217 33.7109 87.7337 33.6406 87.3848 33.5C87.0358 33.3646 86.7728 33.2161 86.5957 33.0547C86.4186 32.8932 86.2754 32.7214 86.166 32.5391H86.041V37.1797H83.5566ZM85.9863 29.2734C85.9863 29.9401 86.166 30.474 86.5254 30.875C86.8848 31.2708 87.3509 31.4688 87.9238 31.4688C88.4967 31.4688 88.9629 31.2656 89.3223 30.8594C89.6816 30.4531 89.8613 29.9245 89.8613 29.2734C89.8613 28.612 89.6816 28.0833 89.3223 27.6875C88.9681 27.2865 88.502 27.0859 87.9238 27.0859C87.3353 27.0859 86.8639 27.2917 86.5098 27.7031C86.1608 28.1094 85.9863 28.6328 85.9863 29.2734ZM94.0098 37.1797V25.0547H96.4629V25.9922H96.5879C96.6608 25.8776 96.7546 25.763 96.8691 25.6484C96.9837 25.5339 97.1322 25.4115 97.3145 25.2812C97.502 25.151 97.7363 25.0469 98.0176 24.9688C98.304 24.8854 98.6113 24.8438 98.9395 24.8438C100.096 24.8438 101.033 25.2448 101.752 26.0469C102.471 26.8438 102.83 27.9036 102.83 29.2266C102.83 30.5547 102.476 31.6354 101.768 32.4688C101.059 33.2969 100.137 33.7109 99.002 33.7109C98.5749 33.7109 98.1868 33.6406 97.8379 33.5C97.4889 33.3646 97.2259 33.2161 97.0488 33.0547C96.8717 32.8932 96.7285 32.7214 96.6191 32.5391H96.4941V37.1797H94.0098ZM96.4395 29.2734C96.4395 29.9401 96.6191 30.474 96.9785 30.875C97.3379 31.2708 97.804 31.4688 98.377 31.4688C98.9499 31.4688 99.416 31.2656 99.7754 30.8594C100.135 30.4531 100.314 29.9245 100.314 29.2734C100.314 28.612 100.135 28.0833 99.7754 27.6875C99.4212 27.2865 98.9551 27.0859 98.377 27.0859C97.7884 27.0859 97.3171 27.2917 96.9629 27.7031C96.6139 28.1094 96.4395 28.6328 96.4395 29.2734ZM103.986 29.3203C103.986 27.9974 104.387 26.9219 105.189 26.0938C105.992 25.2604 107.036 24.8438 108.322 24.8438C108.999 24.8438 109.609 24.9635 110.15 25.2031C110.697 25.4375 111.143 25.7578 111.486 26.1641C111.83 26.5703 112.093 27.0365 112.275 27.5625C112.463 28.0885 112.557 28.6484 112.557 29.2422V29.9609H106.338C106.38 30.5026 106.583 30.9453 106.947 31.2891C107.317 31.6328 107.791 31.8047 108.369 31.8047C108.833 31.8047 109.226 31.7083 109.549 31.5156C109.877 31.3229 110.106 31.0833 110.236 30.7969H112.479C112.286 31.6927 111.82 32.4036 111.08 32.9297C110.34 33.4505 109.406 33.7109 108.275 33.7109C107.468 33.7109 106.736 33.5234 106.08 33.1484C105.429 32.7734 104.916 32.25 104.541 31.5781C104.171 30.9062 103.986 30.1536 103.986 29.3203ZM106.385 28.3125H110.26C110.213 27.8542 110.012 27.4766 109.658 27.1797C109.309 26.8828 108.864 26.7344 108.322 26.7344C107.812 26.7344 107.374 26.8906 107.01 27.2031C106.65 27.5104 106.442 27.8802 106.385 28.3125ZM114.057 30.8438V21.5H116.541V30.5547C116.541 31.0651 116.775 31.3203 117.244 31.3203H117.549V33.5H116.697C115.859 33.5 115.208 33.2656 114.744 32.7969C114.286 32.3281 114.057 31.6771 114.057 30.8438ZM119.08 23.7422C118.809 23.4974 118.674 23.1719 118.674 22.7656C118.674 22.3594 118.809 22.0339 119.08 21.7891C119.351 21.5443 119.702 21.4219 120.135 21.4219C120.567 21.4219 120.916 21.5443 121.182 21.7891C121.452 22.0286 121.588 22.3542 121.588 22.7656C121.588 23.1771 121.452 23.5052 121.182 23.75C120.916 23.9896 120.567 24.1094 120.135 24.1094C119.702 24.1094 119.351 23.987 119.08 23.7422ZM118.9 33.5V25.0547H121.385V33.5H118.9ZM123.197 33.5V25.0547H125.533V25.9766H125.666C125.848 25.6589 126.137 25.3906 126.533 25.1719C126.934 24.9531 127.4 24.8438 127.932 24.8438C128.854 24.8438 129.588 25.125 130.135 25.6875C130.682 26.25 130.955 26.9766 130.955 27.8672V33.5H128.479V28.6328C128.479 28.1901 128.356 27.8333 128.111 27.5625C127.867 27.2865 127.536 27.1484 127.119 27.1484C126.692 27.1484 126.346 27.3047 126.08 27.6172C125.814 27.9245 125.682 28.3073 125.682 28.7656V33.5H123.197ZM134.824 33.5H135.432V32.38H135.048C134.648 32.38 134.44 32.14 134.44 31.724V21.5H133.176V31.724C133.176 32.86 133.784 33.5 134.824 33.5ZM141.024 33.708C142.832 33.708 143.696 32.492 143.904 32.188H144V33.5H145.216V25.18H143.952V26.524H143.856C143.6 26.092 142.672 24.972 140.928 24.972C138.576 24.972 136.88 26.796 136.88 29.356C136.88 31.9 138.576 33.708 141.024 33.708ZM141.104 32.572C139.36 32.572 138.176 31.308 138.176 29.356C138.176 27.468 139.36 26.124 141.072 26.124C142.72 26.124 144 27.308 144 29.356C144 31.1 142.912 32.572 141.104 32.572ZM152.134 33.708C154.582 33.708 156.278 31.9 156.278 29.356C156.278 26.796 154.582 24.972 152.23 24.972C150.486 24.972 149.558 26.092 149.302 26.524H149.206V21.5H147.942V33.5H149.158V32.188H149.254C149.462 32.492 150.326 33.708 152.134 33.708ZM152.054 32.572C150.246 32.572 149.158 31.1 149.158 29.356C149.158 27.308 150.438 26.124 152.086 26.124C153.798 26.124 154.982 27.468 154.982 29.356C154.982 31.308 153.798 32.572 152.054 32.572ZM161.272 33.708C163.208 33.708 164.504 32.652 164.504 31.084C164.504 27.644 159.512 29.404 159.512 27.292C159.512 26.572 160.184 26.06 161.224 26.06C162.328 26.06 162.92 26.588 163.032 27.372H164.248C164.12 25.868 162.84 24.972 161.304 24.972C159.56 24.972 158.296 25.884 158.296 27.292C158.296 30.588 163.272 28.812 163.272 31.148C163.272 31.996 162.584 32.604 161.336 32.604C160.12 32.604 159.416 32.076 159.272 31.084H158.04C158.184 32.636 159.304 33.708 161.272 33.708Z" fill="white"/>
</svg>
