<svg width="177" height="30" viewBox="0 0 177 30" fill="none" xmlns="http://www.w3.org/2000/svg">
<g clip-path="url(#clip0_339_3825)">
<path d="M42.054 11.355C41.0403 1.97132 32.8014 -0.860282 23.5632 0.501756C20.0117 1.02507 16.5824 2.37277 13.7498 4.25094L11.5427 3.89251C11.2264 3.84233 10.9029 3.89968 10.6225 4.05022L7.91934 5.54847C7.39452 5.84238 7.10695 6.43021 7.2076 7.01803L7.79712 10.5665C7.25792 11.6203 6.88408 12.7099 6.70435 13.8282L3.36133 14.9895C2.85089 15.1688 2.41235 15.4985 2.10321 15.9358L0.5 18.1867L6.95597 17.8785C7.12852 18.4592 7.35857 19.0183 7.64614 19.5559L6.92003 25.9575L11.097 25.7425C11.7225 25.7138 12.3192 25.4557 12.7793 25.0256L13.0884 24.7389C13.8433 25.1546 14.6485 25.5202 15.4825 25.85L15.9785 28.2443C16.0648 28.6529 16.2948 29.0114 16.6327 29.2623L16.9059 29.463C17.2726 29.7354 17.7399 29.8573 18.2216 29.8071L27.1003 28.9612C27.9918 28.8752 28.7826 28.23 29.0271 27.3841L29.1133 27.0902C36.9784 25.4414 42.9168 19.2835 42.054 11.355ZM19.53 25.9934L19.4869 26.3805C19.4653 26.5525 19.3431 26.6959 19.1993 26.7102L17.3732 26.911C17.1863 26.9325 17.0353 26.7532 17.0569 26.531L17.0929 26.1439C17.1072 25.9647 17.2295 25.8213 17.3804 25.807L19.2137 25.6063C19.4078 25.5848 19.5588 25.7711 19.53 25.9934ZM22.4776 25.721L22.4345 26.1081C22.4129 26.2801 22.2907 26.4235 22.1469 26.4378L20.3208 26.6385C20.1339 26.6601 19.9829 26.4808 20.0045 26.2586L20.0405 25.8715C20.0548 25.6923 20.1771 25.5489 20.328 25.5346L22.1613 25.3339C22.3482 25.3052 22.4992 25.4916 22.4776 25.721ZM25.418 25.4772L25.3749 25.8643C25.3533 26.0364 25.2311 26.1798 25.0873 26.1941L23.2613 26.3948C23.0743 26.4163 22.9234 26.2371 22.9449 26.0149L22.9809 25.6278C22.9953 25.4486 23.1175 25.3052 23.2684 25.2908L25.1017 25.0901C25.2886 25.0686 25.4396 25.255 25.418 25.4772ZM28.5957 26.0651L28.5382 26.3375C28.5022 26.531 28.3225 26.6385 28.1715 26.5669L27.086 26.0292C27.05 26.0149 27.0141 26.0077 26.9781 26.0077L26.1513 26.0579C25.986 26.0651 25.8638 25.9002 25.8925 25.7066L25.9572 25.3052C25.9788 25.1546 26.0938 25.0471 26.2161 25.0399L27.1219 24.9969C27.165 24.9969 27.2082 25.0041 27.2441 25.0256L28.4663 25.7353C28.5741 25.7926 28.6245 25.9289 28.5957 26.0651ZM24.2031 20.3373C18.8614 20.8821 8.05593 20.9323 7.63177 15.9501C7.2076 10.9751 14.9576 3.99287 22.607 2.12903C27.999 0.817176 33.355 1.93548 36.2379 4.86745C33.3191 3.42655 29.2931 3.02511 25.2311 3.91402C19.2353 5.22588 13.1459 9.49121 11.097 13.4483C13.7858 10.0647 18.9621 6.80297 24.0665 5.68467C28.3153 4.75275 32.5282 5.24021 35.4687 6.84599C33.772 6.43021 31.91 6.22232 29.9904 6.26533C24.2678 6.38003 18.0275 8.81019 15.5544 11.6203C18.5307 9.36217 23.7861 7.58435 28.6604 7.48399C32.3845 7.40514 35.9072 8.26537 38.3803 9.74211C38.3803 9.74928 38.3803 9.76362 38.3803 9.77078C38.6895 16.5738 31.1407 19.6348 24.2031 20.3373Z" fill="#EC3615"/>
</g>
<path d="M70.6644 20.6461V18.389H65.5631L70.6644 12.774V10.8105H62.2784V13.0676H67.1962L62.1133 18.6826V20.6461H70.6644Z" fill="white"/>
<path d="M81.9583 16.0035V15.9668C81.9583 15.2695 81.8605 14.6028 81.6647 13.9667C81.4812 13.3183 81.1876 12.7495 80.7839 12.2602C80.3925 11.7586 79.897 11.361 79.2976 11.0674C78.6982 10.7738 77.9886 10.627 77.169 10.627C76.4472 10.627 75.7866 10.7616 75.1872 11.0307C74.6 11.2998 74.0923 11.6668 73.6642 12.1317C73.236 12.5966 72.8996 13.141 72.6549 13.7649C72.4225 14.3887 72.3063 15.0493 72.3063 15.7466V15.7833C72.3063 16.5418 72.4347 17.233 72.6916 17.8569C72.9485 18.4686 73.3033 19.0007 73.7559 19.4533C74.2208 19.906 74.7652 20.2546 75.3891 20.4993C76.0252 20.744 76.7103 20.8663 77.4443 20.8663C78.3373 20.8663 79.1141 20.7073 79.7747 20.3892C80.4353 20.0589 80.998 19.6063 81.4629 19.0313L79.8664 17.6183C79.475 17.9731 79.0957 18.23 78.7287 18.389C78.3617 18.5481 77.9458 18.6276 77.481 18.6276C76.8571 18.6276 76.331 18.4686 75.9029 18.1505C75.4869 17.8202 75.2117 17.337 75.0771 16.7008H81.9216C81.9339 16.5663 81.94 16.4501 81.94 16.3522C81.9522 16.2543 81.9583 16.1381 81.9583 16.0035ZM79.2425 14.9576H75.0404C75.1505 14.3215 75.3829 13.8138 75.7377 13.4346C76.1047 13.0553 76.5818 12.8657 77.169 12.8657C77.7562 12.8657 78.2272 13.0614 78.5819 13.4529C78.9367 13.8321 79.1569 14.3337 79.2425 14.9576Z" fill="white"/>
<path d="M94.3681 15.7466V15.7099C94.3681 14.8903 94.2396 14.1686 93.9827 13.5447C93.7381 12.9085 93.4078 12.3764 92.9918 11.9482C92.5759 11.5078 92.0988 11.1775 91.5605 10.9573C91.0223 10.7371 90.4657 10.627 89.8907 10.627C89.1567 10.627 88.545 10.7799 88.0557 11.0858C87.5786 11.3794 87.1688 11.7586 86.8262 12.2235V10.8105H84.0371V23.5821H86.8262V19.3616C87.1565 19.7531 87.5602 20.0956 88.0373 20.3892C88.5267 20.6828 89.1445 20.8296 89.8907 20.8296C90.4779 20.8296 91.0406 20.7195 91.5789 20.4993C92.1172 20.2791 92.5881 19.9549 92.9918 19.5267C93.4078 19.0863 93.7381 18.5542 93.9827 17.9303C94.2396 17.2942 94.3681 16.5663 94.3681 15.7466ZM91.5789 15.7466C91.5789 16.1626 91.5116 16.5357 91.377 16.866C91.2547 17.1963 91.0834 17.4838 90.8632 17.7284C90.643 17.9609 90.3861 18.1444 90.0925 18.2789C89.8112 18.4013 89.5053 18.4624 89.175 18.4624C88.8447 18.4624 88.5328 18.4013 88.2392 18.2789C87.9578 18.1444 87.707 17.9609 87.4868 17.7284C87.2789 17.4838 87.1076 17.1963 86.973 16.866C86.8507 16.5235 86.7895 16.1503 86.7895 15.7466V15.7099C86.7895 15.3062 86.8507 14.9392 86.973 14.6089C87.1076 14.2664 87.2789 13.9789 87.4868 13.7465C87.707 13.5018 87.9578 13.3183 88.2392 13.196C88.5328 13.0614 88.8447 12.9942 89.175 12.9942C89.5053 12.9942 89.8112 13.0614 90.0925 13.196C90.3861 13.3183 90.643 13.5018 90.8632 13.7465C91.0834 13.9789 91.2547 14.2664 91.377 14.6089C91.5116 14.9392 91.5789 15.3062 91.5789 15.7099V15.7466Z" fill="white"/>
<path d="M106.751 15.7466V15.7099C106.751 14.8903 106.622 14.1686 106.365 13.5447C106.121 12.9085 105.79 12.3764 105.374 11.9482C104.959 11.5078 104.481 11.1775 103.943 10.9573C103.405 10.7371 102.848 10.627 102.273 10.627C101.539 10.627 100.928 10.7799 100.438 11.0858C99.9612 11.3794 99.5514 11.7586 99.2089 12.2235V10.8105H96.4197V23.5821H99.2089V19.3616C99.5392 19.7531 99.9429 20.0956 100.42 20.3892C100.909 20.6828 101.527 20.8296 102.273 20.8296C102.861 20.8296 103.423 20.7195 103.962 20.4993C104.5 20.2791 104.971 19.9549 105.374 19.5267C105.79 19.0863 106.121 18.5542 106.365 17.9303C106.622 17.2942 106.751 16.5663 106.751 15.7466ZM103.962 15.7466C103.962 16.1626 103.894 16.5357 103.76 16.866C103.637 17.1963 103.466 17.4838 103.246 17.7284C103.026 17.9609 102.769 18.1444 102.475 18.2789C102.194 18.4013 101.888 18.4624 101.558 18.4624C101.227 18.4624 100.915 18.4013 100.622 18.2789C100.34 18.1444 100.09 17.9609 99.8695 17.7284C99.6615 17.4838 99.4903 17.1963 99.3557 16.866C99.2334 16.5235 99.1722 16.1503 99.1722 15.7466V15.7099C99.1722 15.3062 99.2334 14.9392 99.3557 14.6089C99.4903 14.2664 99.6615 13.9789 99.8695 13.7465C100.09 13.5018 100.34 13.3183 100.622 13.196C100.915 13.0614 101.227 12.9942 101.558 12.9942C101.888 12.9942 102.194 13.0614 102.475 13.196C102.769 13.3183 103.026 13.5018 103.246 13.7465C103.466 13.9789 103.637 14.2664 103.76 14.6089C103.894 14.9392 103.962 15.3062 103.962 15.7099V15.7466Z" fill="white"/>
<path d="M117.977 16.0035V15.9668C117.977 15.2695 117.879 14.6028 117.684 13.9667C117.5 13.3183 117.207 12.7495 116.803 12.2602C116.411 11.7586 115.916 11.361 115.317 11.0674C114.717 10.7738 114.008 10.627 113.188 10.627C112.466 10.627 111.806 10.7616 111.206 11.0307C110.619 11.2998 110.111 11.6668 109.683 12.1317C109.255 12.5966 108.919 13.141 108.674 13.7649C108.441 14.3887 108.325 15.0493 108.325 15.7466V15.7833C108.325 16.5418 108.454 17.233 108.711 17.8569C108.967 18.4686 109.322 19.0007 109.775 19.4533C110.24 19.906 110.784 20.2546 111.408 20.4993C112.044 20.744 112.729 20.8663 113.463 20.8663C114.356 20.8663 115.133 20.7073 115.794 20.3892C116.454 20.0589 117.017 19.6063 117.482 19.0313L115.885 17.6183C115.494 17.9731 115.115 18.23 114.748 18.389C114.381 18.5481 113.965 18.6276 113.5 18.6276C112.876 18.6276 112.35 18.4686 111.922 18.1505C111.506 17.8202 111.231 17.337 111.096 16.7008H117.941C117.953 16.5663 117.959 16.4501 117.959 16.3522C117.971 16.2543 117.977 16.1381 117.977 16.0035ZM115.262 14.9576H111.059C111.169 14.3215 111.402 13.8138 111.757 13.4346C112.124 13.0553 112.601 12.8657 113.188 12.8657C113.775 12.8657 114.246 13.0614 114.601 13.4529C114.956 13.8321 115.176 14.3337 115.262 14.9576Z" fill="white"/>
<path d="M122.974 20.6461V7.25061H120.184V20.6461H122.974Z" fill="white"/>
<path d="M128.584 9.72786V7.25061H125.648V9.72786H128.584ZM128.511 20.6461V10.8105H125.722V20.6461H128.511Z" fill="white"/>
<path d="M140.14 20.6461V14.2786C140.14 13.141 139.847 12.2479 139.26 11.5996C138.685 10.9512 137.865 10.627 136.801 10.627C136.446 10.627 136.128 10.6698 135.846 10.7555C135.565 10.8411 135.308 10.9573 135.076 11.1041C134.843 11.2509 134.629 11.4222 134.434 11.6179C134.25 11.8014 134.079 11.9971 133.92 12.2051V10.8105H131.131V20.6461H133.92V15.1594C133.92 14.4989 134.073 14.0034 134.378 13.6731C134.697 13.3306 135.125 13.1593 135.663 13.1593C136.201 13.1593 136.617 13.3306 136.911 13.6731C137.204 14.0034 137.351 14.4989 137.351 15.1594V20.6461H140.14Z" fill="white"/>
<path d="M144.05 20.6461V7.25061H143.151V20.6461H144.05Z" fill="white"/>
<path d="M154.895 20.6461V14.8108C154.895 13.5875 154.546 12.67 153.849 12.0583C153.152 11.4466 152.198 11.1408 150.986 11.1408C150.338 11.1408 149.751 11.2142 149.225 11.361C148.699 11.5078 148.179 11.7035 147.665 11.9482L147.995 12.7373C148.424 12.5171 148.876 12.3397 149.353 12.2051C149.83 12.0583 150.356 11.9849 150.931 11.9849C151.898 11.9849 152.65 12.2235 153.188 12.7006C153.739 13.1777 154.014 13.8933 154.014 14.8475V15.2512C153.562 15.1289 153.097 15.031 152.62 14.9576C152.143 14.8842 151.574 14.8475 150.913 14.8475C150.301 14.8475 149.745 14.9148 149.243 15.0493C148.742 15.1839 148.313 15.3797 147.959 15.6365C147.604 15.8934 147.323 16.2115 147.115 16.5907C146.919 16.97 146.821 17.4043 146.821 17.8936V17.9303C146.821 18.4196 146.925 18.8478 147.133 19.2148C147.353 19.5818 147.635 19.8876 147.977 20.1323C148.32 20.377 148.705 20.5605 149.133 20.6828C149.561 20.8051 149.996 20.8663 150.436 20.8663C150.876 20.8663 151.28 20.8112 151.647 20.7011C152.026 20.6033 152.363 20.4748 152.656 20.3158C152.95 20.1445 153.207 19.9549 153.427 19.7469C153.659 19.5267 153.855 19.3065 154.014 19.0863V20.6461H154.895ZM154.033 17.1412C154.033 17.5694 153.935 17.9609 153.739 18.3156C153.555 18.6704 153.299 18.9762 152.968 19.2331C152.65 19.4778 152.277 19.6735 151.849 19.8203C151.421 19.9549 150.968 20.0222 150.491 20.0222C150.136 20.0222 149.794 19.9733 149.463 19.8754C149.133 19.7775 148.84 19.6368 148.583 19.4533C148.338 19.2698 148.142 19.0496 147.995 18.7927C147.849 18.5236 147.775 18.2178 147.775 17.8752V17.8385C147.775 17.1779 148.038 16.6519 148.564 16.2604C149.103 15.8567 149.867 15.6549 150.858 15.6549C151.531 15.6549 152.13 15.7038 152.656 15.8017C153.182 15.8873 153.641 15.9791 154.033 16.0769V17.1412Z" fill="white"/>
<path d="M167.432 15.9668V15.9301C167.432 15.1717 167.298 14.4927 167.028 13.8933C166.771 13.2816 166.429 12.7678 166.001 12.3519C165.573 11.936 165.083 11.6179 164.533 11.3977C163.995 11.1775 163.444 11.0674 162.881 11.0674C162.416 11.0674 161.988 11.1347 161.597 11.2693C161.218 11.3916 160.869 11.5567 160.551 11.7647C160.245 11.9727 159.964 12.2173 159.707 12.4987C159.45 12.7801 159.224 13.0737 159.028 13.3795V7.25061H158.129V20.6461H159.028V18.6276C159.224 18.9212 159.444 19.2026 159.688 19.4717C159.945 19.7408 160.227 19.9794 160.532 20.1873C160.851 20.3953 161.205 20.5605 161.597 20.6828C161.988 20.8051 162.416 20.8663 162.881 20.8663C163.444 20.8663 163.995 20.7562 164.533 20.536C165.083 20.3036 165.573 19.9794 166.001 19.5634C166.429 19.1353 166.771 18.6215 167.028 18.022C167.298 17.4104 167.432 16.7253 167.432 15.9668ZM166.46 16.0035C166.46 16.6274 166.362 17.1902 166.166 17.6917C165.982 18.1811 165.726 18.597 165.395 18.9395C165.065 19.2821 164.673 19.5451 164.221 19.7286C163.78 19.9121 163.303 20.0038 162.79 20.0038C162.3 20.0038 161.823 19.906 161.358 19.7102C160.906 19.5145 160.502 19.2454 160.147 18.9028C159.792 18.5481 159.505 18.126 159.285 17.6367C159.077 17.1351 158.973 16.5846 158.973 15.9852V15.9485C158.973 15.3491 159.077 14.8047 159.285 14.3154C159.505 13.826 159.792 13.404 160.147 13.0492C160.502 12.6944 160.906 12.4192 161.358 12.2235C161.823 12.0277 162.3 11.9299 162.79 11.9299C163.279 11.9299 163.744 12.0277 164.184 12.2235C164.637 12.407 165.028 12.6761 165.359 13.0309C165.701 13.3734 165.97 13.7954 166.166 14.297C166.362 14.7986 166.46 15.3552 166.46 15.9668V16.0035Z" fill="white"/>
<path d="M176.5 18.0954V18.0587C176.5 17.6428 176.408 17.2942 176.225 17.0128C176.053 16.7314 175.821 16.4929 175.527 16.2971C175.234 16.0892 174.903 15.924 174.536 15.8017C174.169 15.6671 173.796 15.5448 173.417 15.4347C173.087 15.3368 172.763 15.239 172.444 15.1411C172.126 15.031 171.845 14.9087 171.6 14.7741C171.368 14.6395 171.178 14.4805 171.032 14.297C170.885 14.1013 170.811 13.875 170.811 13.6181V13.5814C170.811 13.1165 171.001 12.7311 171.38 12.4253C171.772 12.1072 172.292 11.9482 172.94 11.9482C173.441 11.9482 173.937 12.0338 174.426 12.2051C174.928 12.3764 175.393 12.6027 175.821 12.8841L176.298 12.1317C175.833 11.8136 175.301 11.5629 174.702 11.3794C174.114 11.1959 173.539 11.1041 172.977 11.1041C172.524 11.1041 172.108 11.1714 171.729 11.306C171.35 11.4283 171.025 11.6057 170.756 11.8381C170.487 12.0705 170.273 12.3458 170.114 12.6639C169.967 12.9697 169.894 13.3122 169.894 13.6915V13.7282C169.894 14.1441 169.986 14.4927 170.169 14.7741C170.365 15.0555 170.616 15.294 170.921 15.4897C171.227 15.6732 171.57 15.8262 171.949 15.9485C172.34 16.0708 172.726 16.187 173.105 16.2971C173.435 16.395 173.747 16.4929 174.041 16.5907C174.335 16.6886 174.598 16.8109 174.83 16.9577C175.062 17.1045 175.246 17.2758 175.38 17.4715C175.515 17.6673 175.582 17.8997 175.582 18.1688V18.2055C175.582 18.756 175.362 19.1903 174.922 19.5084C174.494 19.8265 173.961 19.9855 173.325 19.9855C172.726 19.9855 172.145 19.8815 171.582 19.6735C171.019 19.4533 170.481 19.1475 169.967 18.756L169.435 19.4717C169.937 19.8754 170.53 20.2057 171.215 20.4626C171.9 20.7073 172.585 20.8296 173.27 20.8296C173.723 20.8296 174.145 20.7684 174.536 20.6461C174.928 20.5115 175.27 20.328 175.564 20.0956C175.858 19.8509 176.084 19.5634 176.243 19.2331C176.414 18.8906 176.5 18.5114 176.5 18.0954Z" fill="white"/>
<defs>
<clipPath id="clip0_339_3825">
<rect width="41.6403" height="29.6423" fill="white" transform="translate(0.5 0.178833)"/>
</clipPath>
</defs>
</svg>
