<svg width="225" height="26" viewBox="0 0 225 26" fill="none" xmlns="http://www.w3.org/2000/svg">
<g clip-path="url(#clip0_469_3437)">
<path d="M36.8748 9.85251C35.9994 1.7484 28.8839 -0.697076 20.9055 0.479227C17.8383 0.931175 14.8766 2.0951 12.4303 3.71716L10.5242 3.4076C10.251 3.36427 9.9716 3.41379 9.72945 3.54381L7.3949 4.83774C6.94165 5.09158 6.6933 5.59924 6.78022 6.10691L7.28935 9.17149C6.82368 10.0816 6.50082 11.0226 6.3456 11.9884L3.45845 12.9914C3.01762 13.1462 2.63888 13.4309 2.37189 13.8086L0.987305 15.7526L6.56291 15.4864C6.71192 15.9879 6.91061 16.4708 7.15896 16.9351L6.53186 22.4637L10.1392 22.278C10.6794 22.2532 11.1948 22.0303 11.5921 21.6589L11.8591 21.4112C12.511 21.7703 13.2064 22.0861 13.9267 22.3709L14.3551 24.4387C14.4296 24.7916 14.6283 25.1011 14.9201 25.3178L15.156 25.4912C15.4727 25.7264 15.8763 25.8317 16.2923 25.7883L23.9603 25.0578C24.7302 24.9835 25.4132 24.4263 25.6243 23.6957L25.6988 23.4419C32.4913 22.018 37.6199 16.6998 36.8748 9.85251ZM17.4223 22.4947L17.385 22.829C17.3664 22.9776 17.2609 23.1014 17.1367 23.1138L15.5596 23.2871C15.3982 23.3057 15.2678 23.1509 15.2864 22.959L15.3175 22.6247C15.3299 22.4699 15.4354 22.3461 15.5658 22.3337L17.1491 22.1604C17.3167 22.1418 17.4471 22.3028 17.4223 22.4947ZM19.968 22.2594L19.9307 22.5937C19.9121 22.7423 19.8065 22.8661 19.6823 22.8785L18.1053 23.0519C17.9438 23.0704 17.8135 22.9157 17.8321 22.7237L17.8631 22.3894C17.8755 22.2346 17.9811 22.1108 18.1115 22.0984L19.6948 21.9251C19.8562 21.9003 19.9866 22.0613 19.968 22.2594ZM22.5074 22.0489L22.4701 22.3832C22.4515 22.5318 22.346 22.6556 22.2218 22.668L20.6447 22.8414C20.4833 22.8599 20.3529 22.7052 20.3715 22.5132L20.4026 22.1789C20.415 22.0242 20.5205 21.9003 20.6509 21.8879L22.2342 21.7146C22.3956 21.696 22.526 21.857 22.5074 22.0489ZM25.2517 22.5566L25.2021 22.7918C25.171 22.959 25.0158 23.0519 24.8854 22.99L23.9479 22.5256C23.9168 22.5132 23.8858 22.5071 23.8547 22.5071L23.1407 22.5504C22.9979 22.5566 22.8923 22.4142 22.9172 22.247L22.9731 21.9003C22.9917 21.7703 23.091 21.6775 23.1966 21.6713L23.9789 21.6341C24.0162 21.6341 24.0534 21.6403 24.0845 21.6589L25.14 22.2718C25.2331 22.3213 25.2766 22.439 25.2517 22.5566ZM21.4581 17.6099C16.8449 18.0804 7.51287 18.1238 7.14655 13.821C6.78022 9.52438 13.4734 3.49428 20.0797 1.8846C24.7364 0.751634 29.362 1.71744 31.8518 4.24959C29.331 3.00518 25.854 2.65848 22.346 3.42618C17.1677 4.55914 11.9088 8.24283 10.1392 11.6603C12.4614 8.73812 16.9318 5.92118 21.3401 4.95537C25.0096 4.15053 28.648 4.57153 31.1875 5.95832C29.7222 5.59924 28.114 5.4197 26.4563 5.45685C21.514 5.55591 16.1246 7.65468 13.9888 10.0816C16.5593 8.13139 21.098 6.59601 25.3076 6.50933C28.5238 6.44123 31.5662 7.18416 33.7021 8.45952C33.7021 8.46571 33.7021 8.47809 33.7021 8.48428C33.9691 14.3596 27.4497 17.0032 21.4581 17.6099Z" fill="#EC3615"/>
</g>
<path d="M61.5842 17.8762V15.927H57.1786L61.5842 11.0776V9.38187H54.3418V11.3311H58.589L54.1992 16.1805V17.8762H61.5842Z" fill="black"/>
<path d="M71.3381 13.8668V13.8351C71.3381 13.2329 71.2536 12.6571 71.0845 12.1077C70.9261 11.5477 70.6725 11.0564 70.3239 10.6338C69.9858 10.2007 69.5579 9.8573 69.0402 9.60373C68.5225 9.35017 67.9097 9.22339 67.2019 9.22339C66.5785 9.22339 66.008 9.33961 65.4903 9.57204C64.9832 9.80447 64.5447 10.1214 64.175 10.5229C63.8052 10.9244 63.5146 11.3945 63.3033 11.9333C63.1026 12.4722 63.0022 13.0427 63.0022 13.6449V13.6766C63.0022 14.3316 63.1132 14.9286 63.335 15.4674C63.5569 15.9956 63.8633 16.4552 64.2542 16.8461C64.6557 17.237 65.1258 17.5381 65.6646 17.7494C66.214 17.9607 66.8057 18.0664 67.4396 18.0664C68.2108 18.0664 68.8817 17.929 69.4522 17.6544C70.0227 17.3691 70.5087 16.9782 70.9102 16.4816L69.5315 15.2614C69.1934 15.5677 68.8659 15.7896 68.5489 15.927C68.232 16.0643 67.8727 16.133 67.4713 16.133C66.9325 16.133 66.4782 15.9956 66.1084 15.7209C65.7492 15.4357 65.5114 15.0184 65.3952 14.469H71.3064C71.317 14.3528 71.3223 14.2524 71.3223 14.1679C71.3328 14.0833 71.3381 13.983 71.3381 13.8668ZM68.9926 12.9634H65.3635C65.4586 12.4141 65.6594 11.9756 65.9657 11.6481C66.2827 11.3206 66.6947 11.1568 67.2019 11.1568C67.709 11.1568 68.1157 11.3258 68.4221 11.6639C68.7285 11.9915 68.9187 12.4246 68.9926 12.9634Z" fill="black"/>
<path d="M82.0556 13.6449V13.6132C82.0556 12.9053 81.9447 12.282 81.7228 11.7432C81.5115 11.1938 81.2262 10.7342 80.867 10.3644C80.5078 9.98408 80.0958 9.69882 79.6309 9.50865C79.166 9.31848 78.6853 9.22339 78.1888 9.22339C77.5548 9.22339 77.0266 9.35545 76.604 9.61958C76.1919 9.87315 75.838 10.2007 75.5422 10.6021V9.38187H73.1333V20.4118H75.5422V16.7669C75.8274 17.105 76.1761 17.4008 76.5881 17.6544C77.0107 17.9079 77.5443 18.0347 78.1888 18.0347C78.6959 18.0347 79.1819 17.9396 79.6467 17.7494C80.1116 17.5593 80.5184 17.2793 80.867 16.9095C81.2262 16.5292 81.5115 16.0696 81.7228 15.5308C81.9447 14.9814 82.0556 14.3528 82.0556 13.6449ZM79.6467 13.6449C79.6467 14.0041 79.5886 14.3263 79.4724 14.6116C79.3668 14.8969 79.2189 15.1451 79.0287 15.3564C78.8385 15.5572 78.6166 15.7157 78.3631 15.8319C78.1201 15.9375 77.856 15.9903 77.5707 15.9903C77.2854 15.9903 77.016 15.9375 76.7625 15.8319C76.5195 15.7157 76.3029 15.5572 76.1127 15.3564C75.9331 15.1451 75.7852 14.8969 75.669 14.6116C75.5633 14.3158 75.5105 13.9935 75.5105 13.6449V13.6132C75.5105 13.2645 75.5633 12.9476 75.669 12.6623C75.7852 12.3665 75.9331 12.1182 76.1127 11.9175C76.3029 11.7062 76.5195 11.5477 76.7625 11.4421C77.016 11.3258 77.2854 11.2677 77.5707 11.2677C77.856 11.2677 78.1201 11.3258 78.3631 11.4421C78.6166 11.5477 78.8385 11.7062 79.0287 11.9175C79.2189 12.1182 79.3668 12.3665 79.4724 12.6623C79.5886 12.9476 79.6467 13.2645 79.6467 13.6132V13.6449Z" fill="black"/>
<path d="M92.7497 13.6449V13.6132C92.7497 12.9053 92.6387 12.282 92.4169 11.7432C92.2056 11.1938 91.9203 10.7342 91.5611 10.3644C91.2019 9.98408 90.7898 9.69882 90.325 9.50865C89.8601 9.31848 89.3794 9.22339 88.8828 9.22339C88.2489 9.22339 87.7207 9.35545 87.2981 9.61958C86.886 9.87315 86.5321 10.2007 86.2363 10.6021V9.38187H83.8274V20.4118H86.2363V16.7669C86.5215 17.105 86.8702 17.4008 87.2822 17.6544C87.7048 17.9079 88.2384 18.0347 88.8828 18.0347C89.39 18.0347 89.876 17.9396 90.3408 17.7494C90.8057 17.5593 91.2124 17.2793 91.5611 16.9095C91.9203 16.5292 92.2056 16.0696 92.4169 15.5308C92.6387 14.9814 92.7497 14.3528 92.7497 13.6449ZM90.3408 13.6449C90.3408 14.0041 90.2827 14.3263 90.1665 14.6116C90.0608 14.8969 89.9129 15.1451 89.7228 15.3564C89.5326 15.5572 89.3107 15.7157 89.0572 15.8319C88.8142 15.9375 88.55 15.9903 88.2648 15.9903C87.9795 15.9903 87.7101 15.9375 87.4565 15.8319C87.2135 15.7157 86.997 15.5572 86.8068 15.3564C86.6272 15.1451 86.4793 14.8969 86.3631 14.6116C86.2574 14.3158 86.2046 13.9935 86.2046 13.6449V13.6132C86.2046 13.2645 86.2574 12.9476 86.3631 12.6623C86.4793 12.3665 86.6272 12.1182 86.8068 11.9175C86.997 11.7062 87.2135 11.5477 87.4565 11.4421C87.7101 11.3258 87.9795 11.2677 88.2648 11.2677C88.55 11.2677 88.8142 11.3258 89.0572 11.4421C89.3107 11.5477 89.5326 11.7062 89.7228 11.9175C89.9129 12.1182 90.0608 12.3665 90.1665 12.6623C90.2827 12.9476 90.3408 13.2645 90.3408 13.6132V13.6449Z" fill="black"/>
<path d="M102.445 13.8668V13.8351C102.445 13.2329 102.361 12.6571 102.192 12.1077C102.033 11.5477 101.78 11.0564 101.431 10.6338C101.093 10.2007 100.665 9.8573 100.147 9.60373C99.6297 9.35017 99.017 9.22339 98.3091 9.22339C97.6858 9.22339 97.1152 9.33961 96.5975 9.57204C96.0904 9.80447 95.652 10.1214 95.2822 10.5229C94.9124 10.9244 94.6219 11.3945 94.4106 11.9333C94.2098 12.4722 94.1095 13.0427 94.1095 13.6449V13.6766C94.1095 14.3316 94.2204 14.9286 94.4423 15.4674C94.6641 15.9956 94.9705 16.4552 95.3614 16.8461C95.7629 17.237 96.2331 17.5381 96.7719 17.7494C97.3213 17.9607 97.9129 18.0664 98.5468 18.0664C99.3181 18.0664 99.989 17.929 100.559 17.6544C101.13 17.3691 101.616 16.9782 102.017 16.4816L100.639 15.2614C100.301 15.5677 99.9731 15.7896 99.6562 15.927C99.3392 16.0643 98.98 16.133 98.5785 16.133C98.0397 16.133 97.5854 15.9956 97.2156 15.7209C96.8564 15.4357 96.6187 15.0184 96.5025 14.469H102.414C102.424 14.3528 102.43 14.2524 102.43 14.1679C102.44 14.0833 102.445 13.983 102.445 13.8668ZM100.1 12.9634H96.4708C96.5659 12.4141 96.7666 11.9756 97.073 11.6481C97.3899 11.3206 97.802 11.1568 98.3091 11.1568C98.8162 11.1568 99.223 11.3258 99.5294 11.6639C99.8358 11.9915 100.026 12.4246 100.1 12.9634Z" fill="black"/>
<path d="M106.76 17.8762V6.30742H104.352V17.8762H106.76Z" fill="black"/>
<path d="M111.606 8.44685V6.30742H109.07V8.44685H111.606ZM111.543 17.8762V9.38187H109.134V17.8762H111.543Z" fill="black"/>
<path d="M121.586 17.8762V12.3771C121.586 11.3945 121.333 10.6233 120.825 10.0633C120.329 9.50337 119.621 9.22339 118.702 9.22339C118.395 9.22339 118.121 9.26037 117.878 9.33432C117.635 9.40828 117.413 9.50865 117.212 9.63543C117.011 9.76221 116.827 9.91012 116.657 10.0792C116.499 10.2376 116.351 10.4067 116.214 10.5863V9.38187H113.805V17.8762H116.214V13.1378C116.214 12.5673 116.346 12.1394 116.61 11.8541C116.885 11.5583 117.254 11.4104 117.719 11.4104C118.184 11.4104 118.543 11.5583 118.797 11.8541C119.05 12.1394 119.177 12.5673 119.177 13.1378V17.8762H121.586Z" fill="black"/>
<path d="M123.487 13.3639C123.487 12.5514 123.67 11.8119 124.034 11.1452C124.399 10.4785 124.907 9.95248 125.558 9.56706C126.209 9.18165 126.935 8.98894 127.737 8.98894C128.67 8.98894 129.506 9.25717 130.245 9.79362C130.99 10.3249 131.466 11.0384 131.675 11.9342H130.683C130.511 11.3145 130.151 10.8171 129.604 10.4421C129.058 10.0619 128.44 9.87175 127.753 9.87175C126.795 9.87175 126.008 10.2077 125.394 10.8796C124.784 11.5514 124.479 12.3796 124.479 13.3639C124.479 14.3639 124.789 15.1947 125.409 15.8561C126.029 16.5176 126.821 16.8483 127.784 16.8483C128.466 16.8483 129.081 16.6582 129.628 16.278C130.175 15.8978 130.532 15.4004 130.698 14.7858H131.675C131.545 15.3848 131.279 15.9108 130.878 16.3639C130.482 16.8171 130.013 17.1582 129.472 17.3874C128.93 17.6165 128.357 17.7311 127.753 17.7311C126.519 17.7311 125.498 17.3145 124.69 16.4811C123.888 15.6426 123.487 14.6035 123.487 13.3639Z" fill="black"/>
<path d="M134.093 15.6061C133.723 14.9395 133.538 14.1921 133.538 13.3639C133.538 12.5358 133.725 11.7884 134.1 11.1217C134.475 10.4551 134.991 9.93425 135.647 9.55925C136.309 9.17904 137.046 8.98894 137.858 8.98894C139.093 8.98894 140.119 9.4056 140.936 10.2389C141.759 11.0723 142.171 12.1139 142.171 13.3639C142.171 13.9785 142.059 14.5566 141.835 15.0983C141.616 15.6348 141.314 16.0957 140.929 16.4811C140.548 16.8665 140.09 17.1712 139.554 17.3952C139.017 17.6191 138.444 17.7311 137.835 17.7311C137.028 17.7311 136.296 17.5436 135.639 17.1686C134.983 16.7936 134.468 16.2728 134.093 15.6061ZM134.507 13.3639C134.507 14.3691 134.819 15.2025 135.444 15.8639C136.074 16.5202 136.871 16.8483 137.835 16.8483C138.804 16.8483 139.603 16.5202 140.233 15.8639C140.863 15.2077 141.179 14.3744 141.179 13.3639C141.179 12.3587 140.861 11.5254 140.225 10.8639C139.595 10.2025 138.798 9.87175 137.835 9.87175C136.876 9.87175 136.082 10.2051 135.452 10.8717C134.822 11.5384 134.507 12.3691 134.507 13.3639Z" fill="black"/>
<path d="M144.729 17.5202V9.19987H145.69V10.5436H145.784C145.992 10.0853 146.31 9.7129 146.737 9.42644C147.169 9.13477 147.693 8.98894 148.307 8.98894C148.969 8.98894 149.534 9.14258 150.003 9.44987C150.477 9.75717 150.82 10.1712 151.034 10.6921H151.143C151.388 10.14 151.74 9.7181 152.198 9.42644C152.661 9.13477 153.206 8.98894 153.831 8.98894C154.753 8.98894 155.49 9.278 156.042 9.85612C156.594 10.4342 156.87 11.1712 156.87 12.0671V17.5202H155.909V12.3717C155.909 11.6009 155.708 10.9941 155.307 10.5514C154.911 10.1087 154.367 9.88737 153.674 9.88737C152.992 9.88737 152.424 10.127 151.971 10.6061C151.523 11.0801 151.299 11.6999 151.299 12.4655V17.5202H150.346V12.1921C150.346 11.515 150.133 10.9629 149.706 10.5358C149.279 10.1035 148.729 9.88737 148.057 9.88737C147.38 9.88737 146.815 10.1322 146.362 10.6217C145.914 11.1061 145.69 11.7103 145.69 12.4342V17.5202H144.729Z" fill="black"/>
<path d="M160.03 21.1999V9.19987H160.952V10.8483H161.053C161.116 10.7077 161.196 10.5645 161.295 10.4186C161.4 10.2676 161.543 10.1035 161.725 9.92644C161.907 9.74935 162.108 9.59571 162.327 9.4655C162.551 9.33008 162.821 9.2181 163.139 9.12956C163.462 9.03581 163.801 8.98894 164.155 8.98894C165.368 8.98894 166.35 9.39519 167.1 10.2077C167.855 11.015 168.233 12.0592 168.233 13.3405C168.233 14.6322 167.861 15.6869 167.116 16.5046C166.371 17.3223 165.405 17.7311 164.217 17.7311C163.868 17.7311 163.535 17.6869 163.217 17.5983C162.905 17.515 162.637 17.4082 162.413 17.278C162.189 17.1478 161.983 16.9967 161.795 16.8249C161.608 16.653 161.459 16.4863 161.35 16.3249C161.241 16.1582 161.152 15.9967 161.084 15.8405H160.991V21.1999H160.03ZM160.952 13.3405C160.952 14.3926 161.243 15.2415 161.827 15.8874C162.415 16.528 163.176 16.8483 164.108 16.8483C165.051 16.8483 165.811 16.5228 166.389 15.8717C166.967 15.2207 167.256 14.377 167.256 13.3405C167.256 12.2936 166.967 11.4525 166.389 10.8171C165.811 10.1764 165.045 9.85612 164.092 9.85612C163.139 9.85612 162.376 10.1921 161.803 10.8639C161.236 11.5306 160.952 12.3561 160.952 13.3405Z" fill="black"/>
<path d="M170.651 15.6061C170.281 14.9395 170.096 14.1921 170.096 13.3639C170.096 12.5358 170.284 11.7884 170.659 11.1217C171.034 10.4551 171.549 9.93425 172.205 9.55925C172.867 9.17904 173.604 8.98894 174.416 8.98894C175.651 8.98894 176.677 9.4056 177.494 10.2389C178.317 11.0723 178.729 12.1139 178.729 13.3639C178.729 13.9785 178.617 14.5566 178.393 15.0983C178.174 15.6348 177.872 16.0957 177.487 16.4811C177.106 16.8665 176.648 17.1712 176.112 17.3952C175.575 17.6191 175.002 17.7311 174.393 17.7311C173.586 17.7311 172.854 17.5436 172.198 17.1686C171.541 16.7936 171.026 16.2728 170.651 15.6061ZM171.065 13.3639C171.065 14.3691 171.377 15.2025 172.002 15.8639C172.633 16.5202 173.429 16.8483 174.393 16.8483C175.362 16.8483 176.161 16.5202 176.791 15.8639C177.422 15.2077 177.737 14.3744 177.737 13.3639C177.737 12.3587 177.419 11.5254 176.784 10.8639C176.153 10.2025 175.356 9.87175 174.393 9.87175C173.435 9.87175 172.64 10.2051 172.01 10.8717C171.38 11.5384 171.065 12.3691 171.065 13.3639Z" fill="black"/>
<path d="M181.287 17.5202V9.19987H182.248V10.5592H182.342C182.54 10.1165 182.873 9.74415 183.342 9.44206C183.816 9.13998 184.368 8.98894 184.998 8.98894C185.951 8.98894 186.712 9.29623 187.279 9.91081C187.847 10.5202 188.131 11.2806 188.131 12.1921V17.5202H187.17V12.2546C187.17 11.5723 186.941 11.0072 186.483 10.5592C186.029 10.1113 185.464 9.88737 184.787 9.88737C184.063 9.88737 183.459 10.1374 182.975 10.6374C182.49 11.1374 182.248 11.7467 182.248 12.4655V17.5202H181.287Z" fill="black"/>
<path d="M190.557 13.3639C190.557 12.0619 190.942 11.0072 191.713 10.1999C192.489 9.39258 193.453 8.98894 194.604 8.98894C195.426 8.98894 196.145 9.17644 196.76 9.55144C197.38 9.92123 197.846 10.4238 198.158 11.0592C198.476 11.6947 198.635 12.4134 198.635 13.2155V13.7155H191.564C191.591 14.6322 191.885 15.3848 192.447 15.9733C193.015 16.5566 193.765 16.8483 194.697 16.8483C195.364 16.8483 195.96 16.6869 196.486 16.3639C197.012 16.0358 197.367 15.6061 197.549 15.0749H198.557C198.322 15.8665 197.856 16.5072 197.158 16.9967C196.466 17.4863 195.64 17.7311 194.682 17.7311C193.869 17.7311 193.148 17.541 192.518 17.1608C191.887 16.7806 191.403 16.2598 191.064 15.5983C190.726 14.9369 190.557 14.1921 190.557 13.3639ZM191.58 12.8483H197.611C197.575 11.916 197.278 11.1869 196.721 10.6608C196.169 10.1348 195.463 9.87175 194.604 9.87175C193.801 9.87175 193.109 10.1504 192.525 10.7077C191.942 11.2598 191.627 11.9733 191.58 12.8483Z" fill="black"/>
<path d="M201.201 17.5202V9.19987H202.162V10.5592H202.256C202.454 10.1165 202.787 9.74415 203.256 9.44206C203.73 9.13998 204.282 8.98894 204.912 8.98894C205.865 8.98894 206.626 9.29623 207.193 9.91081C207.761 10.5202 208.045 11.2806 208.045 12.1921V17.5202H207.084V12.2546C207.084 11.5723 206.855 11.0072 206.396 10.5592C205.943 10.1113 205.378 9.88737 204.701 9.88737C203.977 9.88737 203.373 10.1374 202.889 10.6374C202.404 11.1374 202.162 11.7467 202.162 12.4655V17.5202H201.201Z" fill="black"/>
<path d="M210.384 10.0124V9.19987H211.681C211.78 9.19987 211.861 9.16862 211.924 9.10612C211.986 9.04362 212.017 8.95769 212.017 8.84831V6.78581H212.931V9.19987H215.494V10.0124H212.931V15.0046C212.931 16.1139 213.45 16.6686 214.486 16.6686H215.408V17.5202H214.416C213.65 17.5202 213.051 17.3092 212.619 16.8874C212.187 16.4603 211.97 15.8405 211.97 15.028V10.0124H210.384Z" fill="black"/>
<path d="M217.646 15.1842H218.576C218.638 15.7363 218.87 16.1582 219.271 16.4499C219.672 16.7363 220.203 16.8796 220.865 16.8796C221.558 16.8796 222.097 16.7337 222.482 16.4421C222.873 16.1504 223.068 15.752 223.068 15.2467C223.068 14.8978 222.972 14.6113 222.779 14.3874C222.591 14.1634 222.347 13.9994 222.044 13.8952C221.742 13.7858 221.406 13.6947 221.037 13.6217C220.667 13.5488 220.297 13.4681 219.927 13.3796C219.563 13.2858 219.229 13.166 218.927 13.0202C218.625 12.8744 218.378 12.653 218.185 12.3561C217.998 12.0592 217.904 11.6895 217.904 11.2467C217.904 10.5697 218.177 10.0254 218.724 9.61394C219.271 9.19727 219.974 8.98894 220.834 8.98894C221.625 8.98894 222.294 9.19987 222.841 9.62175C223.393 10.0436 223.701 10.6165 223.763 11.3405H222.834C222.776 10.8665 222.565 10.4967 222.201 10.2311C221.836 9.96029 221.352 9.82487 220.748 9.82487C220.175 9.82487 219.709 9.95769 219.349 10.2233C218.995 10.4889 218.818 10.8301 218.818 11.2467C218.818 11.4967 218.875 11.7129 218.99 11.8952C219.11 12.0723 219.268 12.2103 219.466 12.3092C219.669 12.4082 219.901 12.4915 220.162 12.5592C220.422 12.627 220.696 12.6895 220.982 12.7467C221.274 12.7988 221.563 12.8561 221.849 12.9186C222.136 12.9811 222.409 13.0697 222.669 13.1842C222.93 13.2936 223.159 13.429 223.357 13.5905C223.56 13.752 223.719 13.9707 223.834 14.2467C223.953 14.5176 224.013 14.8353 224.013 15.1999C224.013 15.9759 223.722 16.5931 223.138 17.0514C222.555 17.5046 221.781 17.7311 220.818 17.7311C219.87 17.7311 219.117 17.4994 218.56 17.0358C218.008 16.5723 217.703 15.9551 217.646 15.1842Z" fill="black"/>
<defs>
<clipPath id="clip0_469_3437">
<rect width="35.962" height="25.6001" fill="white" transform="translate(0.987305 0.19989)"/>
</clipPath>
</defs>
</svg>
