<svg width="263" height="80" viewBox="0 0 263 80" fill="none" xmlns="http://www.w3.org/2000/svg">
<path d="M67.8899 35.3283C66.5509 23.2973 55.6679 19.6669 43.4648 21.4132C38.7736 22.0841 34.2437 23.812 30.5021 26.22L27.5867 25.7605C27.1688 25.6962 26.7415 25.7697 26.3711 25.9627L22.8004 27.8836C22.1072 28.2604 21.7273 29.0141 21.8603 29.7678L22.639 34.3173C21.9267 35.6683 21.4329 37.0654 21.1955 38.4992L16.7796 39.9881C16.1054 40.2179 15.5261 40.6406 15.1177 41.2013L13 44.0872L21.5279 43.692C21.7558 44.4365 22.0597 45.1534 22.4395 45.8427L21.4804 54.0502L26.9979 53.7745C27.8241 53.7377 28.6123 53.4069 29.2201 52.8554L29.6284 52.4878C30.6255 53.0209 31.6891 53.4896 32.7907 53.9124L33.446 56.9822C33.56 57.506 33.8639 57.9656 34.3102 58.2873L34.6711 58.5446C35.1554 58.8939 35.7727 59.0501 36.4089 58.9858L48.1371 57.9012C49.3147 57.791 50.3593 56.9638 50.6822 55.8792L50.7962 55.5024C61.1853 53.3885 69.0295 45.4935 67.8899 35.3283ZM38.1373 54.0962L38.0803 54.5925C38.0518 54.8131 37.8904 54.9969 37.7004 55.0153L35.2883 55.2726C35.0414 55.3002 34.842 55.0704 34.8705 54.7855L34.918 54.2892C34.937 54.0594 35.0984 53.8756 35.2978 53.8572L37.7194 53.5999C37.9758 53.5723 38.1753 53.8113 38.1373 54.0962ZM42.0309 53.7469L41.9739 54.2432C41.9454 54.4638 41.784 54.6476 41.594 54.666L39.1819 54.9234C38.935 54.951 38.7356 54.7212 38.7641 54.4363L38.8115 53.9399C38.8305 53.7102 38.992 53.5264 39.1914 53.508L41.613 53.2506C41.8599 53.2139 42.0594 53.4528 42.0309 53.7469ZM45.9149 53.4344L45.858 53.9308C45.8295 54.1513 45.668 54.3352 45.4781 54.3535L43.066 54.6109C42.8191 54.6385 42.6196 54.4087 42.6481 54.1238L42.6956 53.6275C42.7146 53.3977 42.8761 53.2139 43.0755 53.1955L45.4971 52.9381C45.744 52.9106 45.9434 53.1495 45.9149 53.4344ZM50.1124 54.1881L50.0364 54.5374C49.9889 54.7855 49.7515 54.9234 49.5521 54.8315L48.1181 54.1421C48.0706 54.1238 48.0232 54.1146 47.9757 54.1146L46.8836 54.1789C46.6652 54.1881 46.5037 53.9767 46.5417 53.7286L46.6272 53.2139C46.6557 53.0209 46.8076 52.883 46.9691 52.8738L48.1656 52.8187C48.2226 52.8187 48.2796 52.8278 48.3271 52.8554L49.9415 53.7653C50.0839 53.8388 50.1504 54.0135 50.1124 54.1881ZM44.31 46.8445C37.2541 47.543 22.9808 47.6074 22.4205 41.2197C21.8603 34.8412 32.0975 25.8892 42.2018 23.4995C49.3242 21.8176 56.3991 23.2514 60.2072 27.0105C56.3516 25.1631 51.0336 24.6484 45.668 25.7881C37.7479 27.47 29.7044 32.9386 26.9979 38.012C30.5496 33.6739 37.3871 29.492 44.1296 28.0582C49.742 26.8634 55.307 27.4884 59.1911 29.5472C56.9499 29.0141 54.4903 28.7476 51.9547 28.8027C44.3955 28.9498 36.1525 32.0655 32.8857 35.6683C36.8173 32.7732 43.7592 30.4938 50.1979 30.3652C55.1171 30.2641 59.7704 31.367 63.0372 33.2603C63.0372 33.2695 63.0372 33.2879 63.0372 33.2971C63.4455 42.0193 53.4742 45.9438 44.31 46.8445Z" fill="#EC3615"/>
<path d="M89.1875 45.4999V43.289L94.5312 36.5859V36.4609H89.3828V34.2968H97.7812V36.4921L92.4062 43.1953V43.3203H97.8125V45.4999H89.1875ZM98.625 41.3203C98.625 39.9973 99.026 38.9218 99.8281 38.0937C100.63 37.2604 101.674 36.8437 102.961 36.8437C103.638 36.8437 104.247 36.9635 104.789 37.2031C105.336 37.4374 105.781 37.7578 106.125 38.164C106.469 38.5703 106.732 39.0364 106.914 39.5624C107.102 40.0885 107.195 40.6484 107.195 41.2421V41.9609H100.977C101.018 42.5025 101.221 42.9453 101.586 43.289C101.956 43.6328 102.43 43.8046 103.008 43.8046C103.471 43.8046 103.865 43.7083 104.188 43.5156C104.516 43.3229 104.745 43.0833 104.875 42.7968H107.117C106.924 43.6926 106.458 44.4036 105.719 44.9296C104.979 45.4505 104.044 45.7109 102.914 45.7109C102.107 45.7109 101.375 45.5234 100.719 45.1484C100.068 44.7734 99.5547 44.2499 99.1797 43.5781C98.8099 42.9062 98.625 42.1536 98.625 41.3203ZM101.023 40.3124H104.898C104.852 39.8541 104.651 39.4765 104.297 39.1796C103.948 38.8828 103.503 38.7343 102.961 38.7343C102.451 38.7343 102.013 38.8906 101.648 39.2031C101.289 39.5104 101.081 39.8801 101.023 40.3124ZM108.836 49.1796V37.0546H111.289V37.9921H111.414C111.487 37.8775 111.581 37.763 111.695 37.6484C111.81 37.5338 111.958 37.4114 112.141 37.2812C112.328 37.151 112.562 37.0468 112.844 36.9687C113.13 36.8854 113.438 36.8437 113.766 36.8437C114.922 36.8437 115.859 37.2447 116.578 38.0468C117.297 38.8437 117.656 39.9036 117.656 41.2265C117.656 42.5546 117.302 43.6354 116.594 44.4687C115.885 45.2968 114.964 45.7109 113.828 45.7109C113.401 45.7109 113.013 45.6406 112.664 45.4999C112.315 45.3645 112.052 45.2161 111.875 45.0546C111.698 44.8932 111.555 44.7213 111.445 44.539H111.32V49.1796H108.836ZM111.266 41.2734C111.266 41.94 111.445 42.4739 111.805 42.8749C112.164 43.2708 112.63 43.4687 113.203 43.4687C113.776 43.4687 114.242 43.2656 114.602 42.8593C114.961 42.4531 115.141 41.9244 115.141 41.2734C115.141 40.6119 114.961 40.0833 114.602 39.6874C114.247 39.2864 113.781 39.0859 113.203 39.0859C112.615 39.0859 112.143 39.2916 111.789 39.7031C111.44 40.1093 111.266 40.6328 111.266 41.2734ZM119.289 49.1796V37.0546H121.742V37.9921H121.867C121.94 37.8775 122.034 37.763 122.148 37.6484C122.263 37.5338 122.411 37.4114 122.594 37.2812C122.781 37.151 123.016 37.0468 123.297 36.9687C123.583 36.8854 123.891 36.8437 124.219 36.8437C125.375 36.8437 126.312 37.2447 127.031 38.0468C127.75 38.8437 128.109 39.9036 128.109 41.2265C128.109 42.5546 127.755 43.6354 127.047 44.4687C126.339 45.2968 125.417 45.7109 124.281 45.7109C123.854 45.7109 123.466 45.6406 123.117 45.4999C122.768 45.3645 122.505 45.2161 122.328 45.0546C122.151 44.8932 122.008 44.7213 121.898 44.539H121.773V49.1796H119.289ZM121.719 41.2734C121.719 41.94 121.898 42.4739 122.258 42.8749C122.617 43.2708 123.083 43.4687 123.656 43.4687C124.229 43.4687 124.695 43.2656 125.055 42.8593C125.414 42.4531 125.594 41.9244 125.594 41.2734C125.594 40.6119 125.414 40.0833 125.055 39.6874C124.701 39.2864 124.234 39.0859 123.656 39.0859C123.068 39.0859 122.596 39.2916 122.242 39.7031C121.893 40.1093 121.719 40.6328 121.719 41.2734ZM129.266 41.3203C129.266 39.9973 129.667 38.9218 130.469 38.0937C131.271 37.2604 132.315 36.8437 133.602 36.8437C134.279 36.8437 134.888 36.9635 135.43 37.2031C135.977 37.4374 136.422 37.7578 136.766 38.164C137.109 38.5703 137.372 39.0364 137.555 39.5624C137.742 40.0885 137.836 40.6484 137.836 41.2421V41.9609H131.617C131.659 42.5025 131.862 42.9453 132.227 43.289C132.596 43.6328 133.07 43.8046 133.648 43.8046C134.112 43.8046 134.505 43.7083 134.828 43.5156C135.156 43.3229 135.385 43.0833 135.516 42.7968H137.758C137.565 43.6926 137.099 44.4036 136.359 44.9296C135.62 45.4505 134.685 45.7109 133.555 45.7109C132.747 45.7109 132.016 45.5234 131.359 45.1484C130.708 44.7734 130.195 44.2499 129.82 43.5781C129.451 42.9062 129.266 42.1536 129.266 41.3203ZM131.664 40.3124H135.539C135.492 39.8541 135.292 39.4765 134.938 39.1796C134.589 38.8828 134.143 38.7343 133.602 38.7343C133.091 38.7343 132.654 38.8906 132.289 39.2031C131.93 39.5104 131.721 39.8801 131.664 40.3124ZM139.336 42.8437V33.4999H141.82V42.5546C141.82 43.065 142.055 43.3203 142.523 43.3203H142.828V45.4999H141.977C141.138 45.4999 140.487 45.2656 140.023 44.7968C139.565 44.3281 139.336 43.677 139.336 42.8437ZM144.359 35.7421C144.089 35.4973 143.953 35.1718 143.953 34.7656C143.953 34.3593 144.089 34.0338 144.359 33.789C144.63 33.5442 144.982 33.4218 145.414 33.4218C145.846 33.4218 146.195 33.5442 146.461 33.789C146.732 34.0286 146.867 34.3541 146.867 34.7656C146.867 35.177 146.732 35.5051 146.461 35.7499C146.195 35.9895 145.846 36.1093 145.414 36.1093C144.982 36.1093 144.63 35.9869 144.359 35.7421ZM144.18 45.4999V37.0546H146.664V45.4999H144.18ZM148.477 45.4999V37.0546H150.812V37.9765H150.945C151.128 37.6588 151.417 37.3906 151.812 37.1718C152.214 36.9531 152.68 36.8437 153.211 36.8437C154.133 36.8437 154.867 37.1249 155.414 37.6874C155.961 38.2499 156.234 38.9765 156.234 39.8671V45.4999H153.758V40.6328C153.758 40.19 153.635 39.8333 153.391 39.5624C153.146 39.2864 152.815 39.1484 152.398 39.1484C151.971 39.1484 151.625 39.3046 151.359 39.6171C151.094 39.9244 150.961 40.3072 150.961 40.7656V45.4999H148.477ZM163.56 45.7079C166.136 45.7079 168.136 44.2359 168.84 41.9159H167.4C166.84 43.6279 165.304 44.4919 163.576 44.4919C161.096 44.4919 159.16 42.5559 159.16 39.8999C159.16 37.2759 161.096 35.3079 163.576 35.3079C165.304 35.3079 166.856 36.1879 167.448 37.8839H168.84C168.104 35.6119 166.152 34.0919 163.576 34.0919C160.264 34.0919 157.816 36.6039 157.816 39.8999C157.816 43.2279 160.248 45.7079 163.56 45.7079ZM174.777 45.7079C177.273 45.7079 179.129 43.8359 179.129 41.3399C179.129 38.8439 177.305 36.9719 174.793 36.9719C172.313 36.9719 170.441 38.8279 170.441 41.3399C170.441 43.8679 172.281 45.7079 174.777 45.7079ZM174.777 44.5559C173.001 44.5559 171.737 43.2119 171.737 41.3399C171.737 39.5159 172.985 38.1239 174.777 38.1239C176.569 38.1239 177.833 39.4999 177.833 41.3399C177.833 43.1959 176.569 44.5559 174.777 44.5559ZM181.362 45.4999H182.626V40.4919C182.626 39.0839 183.618 38.1559 184.786 38.1559C185.954 38.1559 186.85 38.9559 186.85 40.2839V45.4999H188.114V40.5399C188.114 38.9879 189.138 38.1559 190.306 38.1559C191.538 38.1559 192.322 38.9559 192.322 40.5239V45.4999H193.586V40.1079C193.586 38.2839 192.386 36.9719 190.53 36.9719C189.362 36.9719 188.45 37.4199 187.89 38.4919H187.778C187.314 37.5799 186.402 36.9719 185.154 36.9719C183.922 36.9719 183.122 37.6119 182.722 38.3799H182.626V37.1799H181.362V45.4999ZM196.299 49.1799H197.563V44.1559H197.659C197.915 44.5879 198.843 45.7079 200.587 45.7079C202.939 45.7079 204.635 43.8839 204.635 41.3239C204.635 38.7799 202.939 36.9719 200.491 36.9719C198.683 36.9719 197.819 38.1879 197.611 38.4919H197.515V37.1799H196.299V49.1799ZM200.443 44.5559C198.795 44.5559 197.515 43.3719 197.515 41.3239C197.515 39.5799 198.603 38.1079 200.411 38.1079C202.155 38.1079 203.339 39.3719 203.339 41.3239C203.339 43.2119 202.155 44.5559 200.443 44.5559ZM210.574 45.7079C213.07 45.7079 214.926 43.8359 214.926 41.3399C214.926 38.8439 213.102 36.9719 210.59 36.9719C208.11 36.9719 206.238 38.8279 206.238 41.3399C206.238 43.8679 208.078 45.7079 210.574 45.7079ZM210.574 44.5559C208.798 44.5559 207.534 43.2119 207.534 41.3399C207.534 39.5159 208.782 38.1239 210.574 38.1239C212.366 38.1239 213.63 39.4999 213.63 41.3399C213.63 43.1959 212.366 44.5559 210.574 44.5559ZM217.159 45.4999H218.423V40.5399C218.423 39.1639 219.447 38.1559 220.759 38.1559C221.927 38.1559 222.903 39.0199 222.903 40.3479V45.4999H224.167V40.2679C224.167 38.4279 222.999 36.9719 221.063 36.9719C219.767 36.9719 218.871 37.6439 218.519 38.3959H218.423V37.1799H217.159V45.4999ZM230.413 45.7079C232.365 45.7079 233.821 44.6039 234.285 43.0519H232.973C232.589 44.0279 231.533 44.5559 230.429 44.5559C228.717 44.5559 227.645 43.4519 227.581 41.7879H234.365V41.2279C234.365 38.8279 232.861 36.9719 230.333 36.9719C228.061 36.9719 226.253 38.6839 226.253 41.3399C226.253 43.8359 227.869 45.7079 230.413 45.7079ZM227.613 40.6679C227.741 39.1319 228.941 38.1239 230.333 38.1239C231.741 38.1239 232.909 39.0039 233.021 40.6679H227.613ZM236.612 45.4999H237.876V40.5399C237.876 39.1639 238.9 38.1559 240.212 38.1559C241.38 38.1559 242.356 39.0199 242.356 40.3479V45.4999H243.62V40.2679C243.62 38.4279 242.452 36.9719 240.516 36.9719C239.22 36.9719 238.324 37.6439 237.972 38.3959H237.876V37.1799H236.612V45.4999ZM249.594 45.4999H250.826V44.3959H249.674C248.714 44.3959 248.378 43.8679 248.378 42.9719V38.2519H250.938V37.1799H248.378V34.7639H247.194V36.7639C247.194 37.0359 247.018 37.1799 246.794 37.1799H245.546V38.2519H247.114V42.9879C247.114 44.6679 248.058 45.4999 249.594 45.4999ZM255.926 45.7079C257.862 45.7079 259.158 44.6519 259.158 43.0839C259.158 39.6439 254.166 41.4039 254.166 39.2919C254.166 38.5719 254.838 38.0599 255.878 38.0599C256.982 38.0599 257.574 38.5879 257.686 39.3719H258.902C258.774 37.8679 257.494 36.9719 255.958 36.9719C254.214 36.9719 252.95 37.8839 252.95 39.2919C252.95 42.5879 257.926 40.8119 257.926 43.1479C257.926 43.9959 257.238 44.6039 255.99 44.6039C254.774 44.6039 254.07 44.0759 253.926 43.0839H252.694C252.838 44.6359 253.958 45.7079 255.926 45.7079Z" fill="black"/>
</svg>
