<svg width="16" height="16" viewBox="0 0 16 16" fill="none" xmlns="http://www.w3.org/2000/svg">
<path d="M16 8C16 9.53562 15.558 11.0388 14.7269 12.33C13.8957 13.6213 12.7105 14.646 11.3127 15.2819C9.91494 15.9178 8.36369 16.1379 6.84418 15.9161C5.32468 15.6942 3.90113 15.0397 2.74352 14.0307C1.58592 13.0217 0.743165 11.7009 0.3159 10.2259C-0.111365 8.75091 -0.105089 7.18413 0.333978 5.71262C0.773046 4.24111 1.62635 2.92706 2.792 1.92737C3.95766 0.927688 5.3864 0.284611 6.90764 0.0749296L7.14796 1.81845C5.96139 1.982 4.84697 2.4836 3.93776 3.26335C3.02855 4.04311 2.36298 5.06807 2.0205 6.21584C1.67803 7.36362 1.67314 8.58571 2.0064 9.7362C2.33967 10.8867 2.99701 11.9169 3.89995 12.704C4.80288 13.491 5.91325 14.0015 7.09846 14.1745C8.28368 14.3476 9.49365 14.1759 10.5839 13.6799C11.6742 13.1839 12.5987 12.3846 13.247 11.3774C13.8953 10.3703 14.24 9.19778 14.24 8H16Z" fill="#667799"/>
</svg>
