<svg width="12" height="12" viewBox="0 0 12 12" fill="none" xmlns="http://www.w3.org/2000/svg">
<rect width="12" height="12" fill="white"/>
<path d="M6 1C8.9903 1 11.4781 3.15177 12 5.99122C11.4787 8.83067 8.9903 10.9824 6 10.9824C3.00971 10.9824 0.52186 8.83067 0 5.99122C0.521305 3.15177 3.00971 1 6 1ZM6 9.87328C7.13105 9.87303 8.22852 9.48885 9.11278 8.78362C9.99704 8.07839 10.6157 7.09388 10.8675 5.99122C10.6148 4.88944 9.99571 3.906 9.11154 3.2017C8.22737 2.49739 7.1304 2.11389 6 2.11389C4.8696 2.11389 3.77264 2.49739 2.88846 3.2017C2.00429 3.906 1.38521 4.88944 1.13245 5.99122C1.38428 7.09388 2.00296 8.07839 2.88722 8.78362C3.77148 9.48885 4.86895 9.87303 6 9.87328V9.87328ZM6 8.48683C5.33812 8.48683 4.70336 8.2239 4.23534 7.75588C3.76732 7.28786 3.50439 6.6531 3.50439 5.99122C3.50439 5.32934 3.76732 4.69457 4.23534 4.22656C4.70336 3.75854 5.33812 3.49561 6 3.49561C6.66188 3.49561 7.29664 3.75854 7.76466 4.22656C8.23268 4.69457 8.49561 5.32934 8.49561 5.99122C8.49561 6.6531 8.23268 7.28786 7.76466 7.75588C7.29664 8.2239 6.66188 8.48683 6 8.48683ZM6 7.37767C6.36771 7.37767 6.72036 7.2316 6.98037 6.97159C7.24038 6.71158 7.38645 6.35893 7.38645 5.99122C7.38645 5.62351 7.24038 5.27086 6.98037 5.01085C6.72036 4.75084 6.36771 4.60477 6 4.60477C5.63229 4.60477 5.27964 4.75084 5.01963 5.01085C4.75962 5.27086 4.61355 5.62351 4.61355 5.99122C4.61355 6.35893 4.75962 6.71158 5.01963 6.97159C5.27964 7.2316 5.63229 7.37767 6 7.37767Z" fill="#1C2835"/>
</svg>
